<svg width="1080" height="1080" viewBox="0 0 1080 1080" fill="none" xmlns="http://www.w3.org/2000/svg">
<g clip-path="url(#clip0_48_1294)">
<g opacity="0.95997" filter="url(#filter0_f_48_1294)">
<path d="M0 540C0 241.766 241.766 0 540 0C838.234 0 1080 241.766 1080 540C1080 838.234 838.234 1080 540 1080C241.766 1080 0 838.234 0 540Z" fill="#7B5BFF" fill-opacity="0.05"/>
<g opacity="0.993752" filter="url(#filter1_f_48_1294)">
<path d="M167 540.5C167 334.222 334.222 167 540.5 167C746.778 167 914 334.222 914 540.5C914 746.778 746.778 914 540.5 914C334.222 914 167 746.778 167 540.5Z" fill="#7B5BFF" fill-opacity="0.1"/>
</g>
</g>
<mask id="mask0_48_1294" style="mask-type:luminance" maskUnits="userSpaceOnUse" x="139" y="148" width="786" height="786">
<path d="M924.485 540.736C924.485 757.621 748.664 933.443 531.779 933.443C314.892 933.443 139.073 757.621 139.073 540.736C139.073 323.852 314.892 148.03 531.779 148.03C748.664 148.03 924.485 323.852 924.485 540.736Z" fill="white"/>
<path d="M542.113 539.444C542.113 547.293 535.749 553.654 527.903 553.654C520.054 553.654 513.693 547.293 513.693 539.444C513.693 531.595 520.054 525.234 527.903 525.234C535.749 525.234 542.113 531.595 542.113 539.444Z" fill="white"/>
</mask>
<g mask="url(#mask0_48_1294)">
<path d="M536.947 540.39L536.508 541.605C556.396 548.777 571.526 548.128 582.243 541.114C592.934 534.115 598.842 521.024 600.881 504.207C604.958 470.579 593.714 420.997 572.368 370.992C551.004 320.945 519.43 270.25 482.624 234.387C445.844 198.553 403.595 177.308 360.981 186.813L361.263 188.074L361.544 189.334C402.897 180.108 444.289 200.643 480.821 236.237C517.322 271.803 548.723 322.183 569.991 372.005C591.275 421.866 602.312 470.941 598.315 503.897C596.318 520.37 590.601 532.554 580.827 538.954C571.074 545.338 556.898 546.211 537.386 539.176L536.947 540.39ZM537.487 537.419L537.379 538.706C558.45 540.489 572.962 535.898 581.62 526.279C590.257 516.678 592.76 502.404 590.595 485.497C586.263 451.693 563.142 406.356 530.15 363.221C497.136 320.054 454.089 278.9 409.679 253.519C365.306 228.153 319.279 218.387 280.572 238.601L281.171 239.745L281.768 240.89C319.321 221.281 364.329 230.574 408.398 255.761C452.43 280.931 495.232 321.819 528.098 364.791C560.99 407.795 583.785 452.693 588.032 485.825C590.154 502.388 587.614 515.753 579.698 524.55C571.805 533.324 558.259 537.879 537.596 536.133L537.487 537.419ZM537.239 534.409L537.466 535.683C558.277 531.95 571.071 523.824 576.876 512.4C582.671 500.993 581.289 486.709 574.704 471.129C561.533 439.977 527.15 402.675 483.81 370.054C440.434 337.41 387.892 309.306 338.194 296.662C288.535 284.028 241.4 286.762 209.247 316.303L210.123 317.253L210.996 318.204C242.195 289.539 288.238 286.62 337.558 299.166C386.84 311.704 439.075 339.622 482.255 372.118C525.471 404.643 559.417 441.609 572.324 472.134C578.775 487.396 579.871 500.802 574.575 511.229C569.288 521.634 557.427 529.477 537.012 533.138L537.239 534.409ZM536.221 531.567L536.771 532.738C555.903 523.747 566.155 512.627 568.792 500.154C571.428 487.703 566.374 474.356 555.96 461.131C535.131 434.683 492.212 407.865 441.853 387.886C391.452 367.892 333.373 354.659 282.058 355.545C230.781 356.428 185.935 371.426 162.525 408.278L163.615 408.971L164.706 409.663C187.426 373.896 231.174 359.004 282.101 358.128C332.991 357.25 390.726 370.385 440.899 390.289C491.112 410.208 533.524 436.817 553.929 462.73C564.129 475.682 568.671 488.248 566.266 499.619C563.866 510.968 554.448 521.577 535.671 530.4L536.221 531.567ZM534.503 529.085L535.337 530.072C551.495 516.433 558.515 502.939 557.838 490.036C557.164 477.165 548.844 465.332 535.366 454.948C508.416 434.189 460.031 418.587 406.222 411.518C352.378 404.447 292.86 405.894 243.526 419.427C194.231 432.949 154.79 458.64 141.717 500.301L142.949 500.688L144.182 501.076C156.867 460.653 195.254 435.347 244.211 421.917C293.128 408.498 352.282 407.041 405.887 414.081C459.532 421.127 507.375 436.649 533.79 456.995C546.992 467.166 554.639 478.382 555.257 490.173C555.874 501.936 549.516 514.722 533.668 528.098L534.503 529.085ZM532.201 527.131L533.26 527.87C545.336 510.516 548.615 495.749 544.584 483.608C540.564 471.494 529.413 462.438 513.656 456.163C482.144 443.612 431.234 441.764 377.297 449.562C323.315 457.364 266.065 474.863 221.816 501.226C177.6 527.565 146.088 562.937 144.241 606.561L145.533 606.616L146.822 606.67C148.615 564.34 179.218 529.609 223.136 503.445C267.021 477.299 323.925 459.886 377.666 452.119C431.446 444.343 481.818 446.262 512.7 458.563C528.14 464.712 538.458 473.351 542.132 484.422C545.798 495.464 542.988 509.369 531.142 526.395L532.201 527.131ZM529.47 525.842L530.687 526.281C537.859 506.393 537.182 491.289 530.108 480.627C523.053 469.988 509.884 464.162 492.982 462.216C459.176 458.325 409.359 469.817 359.113 491.411C308.829 513.02 257.896 544.839 221.855 581.831C185.842 618.792 164.476 661.166 173.983 703.782L175.244 703.5L176.505 703.219C167.279 661.868 187.93 620.353 223.705 583.635C259.451 546.945 310.071 515.296 360.134 493.782C410.232 472.253 459.548 460.968 492.685 464.782C509.254 466.688 521.51 472.333 527.956 482.053C534.387 491.749 535.294 505.892 528.256 525.403L529.47 525.842ZM526.502 525.302L527.788 525.411C529.568 504.347 525.013 489.972 515.431 481.575C505.869 473.199 491.657 471.093 474.85 473.718C441.233 478.971 396.149 503.311 353.264 537.517C310.345 571.747 269.442 616.01 244.249 661.328C219.075 706.606 209.433 753.237 229.644 791.939L230.791 791.342L231.936 790.746C212.321 753.188 221.496 707.57 246.507 662.584C271.496 617.635 312.143 573.618 354.874 539.535C397.637 505.429 442.297 481.42 475.248 476.271C491.724 473.698 505.003 475.876 513.728 483.52C522.432 491.145 526.961 504.522 525.215 525.194L526.502 525.302ZM523.492 525.548L524.763 525.32C521.032 504.517 512.935 491.855 501.542 486.318C490.176 480.795 475.961 482.575 460.483 489.618C429.524 503.706 392.475 539.303 360.105 583.857C327.707 628.447 299.853 682.204 287.398 732.809C274.95 783.37 277.808 831.114 307.346 863.265L308.297 862.391L309.25 861.518C280.582 830.316 277.539 783.667 289.907 733.426C302.264 683.227 329.939 629.772 362.195 585.376C394.475 540.946 431.203 505.781 461.555 491.969C476.731 485.063 490.057 483.608 500.412 488.641C510.744 493.664 518.557 505.354 522.221 525.778L523.492 525.548ZM520.647 526.566L521.818 526.018C512.824 506.879 501.606 496.73 488.962 494.297C476.357 491.868 462.79 497.203 449.301 507.948C422.318 529.441 394.777 573.246 374.075 624.497C353.36 675.789 339.4 734.759 339.741 786.741C340.08 838.682 354.708 883.988 391.571 907.403L392.263 906.312L392.956 905.222C357.201 882.51 342.661 838.33 342.325 786.726C341.987 735.165 355.845 676.533 376.472 625.466C397.115 574.36 424.447 531.048 450.911 509.969C464.144 499.428 476.943 494.612 488.474 496.834C499.968 499.048 510.659 508.346 519.479 527.116L520.647 526.566ZM518.164 528.284L519.151 527.452C505.513 511.291 492.036 504.411 479.173 505.37C466.35 506.323 454.6 515.035 444.32 528.963C423.755 556.822 408.4 606.417 401.58 661.437C394.754 716.496 396.446 777.223 410.16 827.466C423.866 877.663 449.676 917.719 491.344 930.797L491.732 929.565L492.119 928.332C451.704 915.647 426.269 876.661 412.653 826.784C399.05 776.952 397.348 716.576 404.143 661.755C410.943 606.89 426.225 557.825 446.397 530.495C456.486 516.831 467.632 508.816 479.364 507.946C491.06 507.075 503.802 513.27 517.177 529.118L518.164 528.284ZM516.211 530.588L516.95 529.526C499.596 517.451 484.903 514.296 472.91 518.575C460.951 522.84 452.135 534.334 446.142 550.479C434.151 582.774 433.035 634.733 441.561 689.722C450.097 744.753 468.324 803.054 495.232 848.091C522.115 893.087 557.851 925.134 601.48 926.981L601.534 925.689L601.589 924.398C559.264 922.607 524.169 891.485 497.449 846.766C470.755 802.085 452.613 744.125 444.116 689.327C435.611 634.49 436.802 583.056 448.565 551.378C454.448 535.536 462.87 524.899 473.778 521.008C484.647 517.13 498.446 519.799 515.472 531.648L516.211 530.588ZM514.922 533.317L515.359 532.1C495.465 524.925 480.361 525.757 469.714 533.11C459.103 540.437 453.311 553.98 451.399 571.332C447.573 606.04 459.145 657.068 480.821 708.528C502.513 760.024 534.415 812.174 571.466 849.127C608.484 886.049 650.904 908.041 693.533 898.531L693.252 897.27L692.97 896.009C651.633 905.23 610.078 883.988 573.29 847.298C536.536 810.642 504.802 758.805 483.203 707.526C461.589 656.21 450.213 605.673 453.967 571.616C455.843 554.582 461.47 541.943 471.182 535.236C480.857 528.552 494.979 527.496 514.483 534.531L514.922 533.317ZM514.382 536.285L514.49 534.998C493.414 533.218 479.023 537.952 470.616 547.844C462.237 557.703 460.106 572.334 462.7 589.652C467.893 624.293 492.145 670.751 526.274 715.015C560.424 759.311 604.606 801.594 649.866 827.823C695.081 854.031 741.684 864.378 780.402 844.159L779.802 843.014L779.205 841.87C741.663 861.474 696.094 851.631 651.16 825.588C606.267 799.569 562.326 757.547 528.32 713.439C494.289 669.299 470.35 623.262 465.255 589.269C462.708 572.267 464.911 558.548 472.585 549.518C480.229 540.522 493.615 535.828 514.273 537.574L514.382 536.285ZM514.63 539.295L514.4 538.024C493.576 541.76 480.873 550.118 475.256 561.95C469.66 573.739 471.298 588.567 478.186 604.799C491.962 637.273 527.148 676.349 571.301 710.747C615.488 745.171 668.842 775.053 719.15 789.035C769.411 803.005 816.975 801.181 849.143 771.625L848.267 770.674L847.394 769.723C816.21 798.373 769.783 800.426 719.84 786.545C669.945 772.679 616.889 742.988 572.89 708.711C528.86 674.409 494.085 635.663 480.563 603.792C473.801 587.851 472.453 573.876 477.589 563.056C482.707 552.28 494.457 544.224 514.857 540.566L514.63 539.295ZM515.648 542.14L515.098 540.969C495.987 549.95 485.996 560.816 483.901 572.877C481.813 584.913 487.683 597.607 499.007 610.023C521.668 634.875 567.012 659.577 619.798 677.453C672.622 695.339 733.124 706.464 786.248 704.002C839.323 701.539 885.376 685.49 908.78 648.646L907.69 647.953L906.6 647.261C883.874 683.036 838.904 698.974 786.129 701.421C733.406 703.865 673.232 692.817 620.624 675.003C567.976 657.177 523.133 632.645 500.916 608.285C489.802 596.095 484.56 584.187 486.448 573.318C488.329 562.478 497.4 552.138 516.196 543.307L515.648 542.14ZM517.363 544.62L516.532 543.633C500.405 557.246 493.55 570.153 494.646 582.053C495.739 593.938 504.712 604.246 518.852 612.785C547.155 629.878 597.318 640.611 652.896 642.825C708.521 645.044 769.806 638.74 820.455 621.57C871.057 604.414 911.356 576.297 924.424 534.663L923.192 534.275L921.959 533.888C909.263 574.336 869.952 602.061 819.626 619.123C769.349 636.167 708.394 642.453 652.999 640.244C597.558 638.032 547.925 627.326 520.187 610.574C506.306 602.193 498.198 592.478 497.219 581.818C496.237 571.171 502.317 559.013 518.198 545.607L517.363 544.62ZM519.665 546.573L518.604 545.837C506.541 563.173 503.319 577.62 507.517 589.189C511.708 600.733 523.112 608.91 539.104 614.142C571.105 624.613 622.663 623.704 677.246 613.16C731.874 602.609 789.767 582.361 834.497 553.941C879.183 525.55 911.007 488.806 912.855 445.195L911.565 445.141L910.274 445.087C908.481 487.429 877.54 523.532 833.109 551.761C788.723 579.963 731.156 600.115 676.756 610.623C622.314 621.141 571.28 621.952 539.908 611.687C524.213 606.551 513.736 598.749 509.946 588.308C506.166 577.894 508.866 564.356 520.725 547.312L519.665 546.573ZM522.394 547.865L521.179 547.426C514.015 567.296 514.633 582.118 521.663 592.269C528.68 602.399 541.784 607.442 558.559 608.471C592.127 610.527 641.621 596.604 691.544 572.59C741.506 548.557 792.116 514.314 827.909 475.511C863.671 436.742 884.867 393.162 875.364 350.558L874.103 350.84L872.842 351.122C882.068 392.485 861.563 435.218 826.01 473.757C790.491 512.263 740.175 546.33 690.423 570.262C640.632 594.212 591.621 607.907 558.719 605.892C542.259 604.885 530.137 599.968 523.786 590.799C517.451 581.65 516.565 567.833 523.611 548.301L522.394 547.865ZM525.365 548.405L524.078 548.296C522.298 569.358 526.85 583.66 536.448 591.915C546.018 600.151 560.238 602.048 577.044 599.177C610.662 593.439 655.754 568.453 698.644 533.603C741.568 498.727 782.476 453.822 807.674 408.023C832.851 362.265 842.496 315.31 822.284 276.608L821.14 277.208L819.995 277.804C839.607 315.362 830.43 361.304 805.411 406.777C780.414 452.21 739.754 496.872 697.016 531.598C654.242 566.35 609.572 591.003 576.61 596.633C560.127 599.446 546.853 597.459 538.133 589.957C529.437 582.477 524.905 569.187 526.651 548.513L525.365 548.405ZM528.375 548.157L527.104 548.384C530.837 569.197 539.016 581.911 550.544 587.554C562.044 593.181 576.455 591.564 592.179 584.704C623.632 570.983 661.339 535.877 694.365 491.806C727.417 447.704 755.927 394.433 768.879 344.19C781.817 293.991 779.293 246.484 749.75 214.328L748.799 215.201L747.848 216.075C776.508 247.272 779.231 293.67 766.375 343.546C753.532 393.379 725.206 446.345 692.298 490.258C659.365 534.2 621.986 568.882 591.148 582.335C575.727 589.063 562.191 590.375 551.681 585.231C541.2 580.103 533.307 568.342 529.646 547.929L528.375 548.157ZM531.217 547.139L530.049 547.689C539.042 566.828 550.278 577.031 562.951 579.573C575.59 582.11 589.208 576.938 602.764 566.374C629.879 545.245 657.591 501.926 678.463 451.158C699.352 400.355 713.479 341.867 713.267 290.247C713.055 238.668 698.509 193.605 661.649 170.19L660.957 171.28L660.265 172.371C696.021 195.083 710.474 239.022 710.683 290.257C710.895 341.451 696.869 399.595 676.073 450.177C655.263 500.794 627.763 543.62 601.178 564.335C587.885 574.693 575.032 579.364 563.46 577.041C551.919 574.724 541.205 565.358 532.387 546.591L531.217 547.139ZM533.699 545.421L532.713 546.255C532.86 546.428 533.007 546.601 533.154 546.774L534.136 545.935L535.118 545.095C534.976 544.927 534.831 544.759 534.686 544.589L533.699 545.421ZM534.136 545.935L533.154 546.774C533.831 547.565 534.506 548.335 535.18 549.082L536.138 548.214L537.097 547.348C536.438 546.619 535.779 545.87 535.118 545.095L534.136 545.935ZM536.138 548.214L535.18 549.082C536.417 550.448 537.652 551.74 538.887 552.957L539.794 552.037L540.701 551.12C539.505 549.937 538.303 548.681 537.097 547.348L536.138 548.214ZM539.794 552.037L538.887 552.957C541.233 555.275 543.574 557.323 545.904 559.111L546.69 558.085L547.475 557.06C545.238 555.344 542.98 553.368 540.701 551.12L539.794 552.037ZM546.69 558.085L545.904 559.111C549.423 561.811 552.927 563.919 556.404 565.462L556.929 564.281L557.453 563.1C554.185 561.651 550.855 559.654 547.475 557.06L546.69 558.085ZM556.929 564.281L556.404 565.462C560.23 567.159 564.026 568.167 567.772 568.526L567.893 567.239L568.017 565.953C564.568 565.624 561.044 564.692 557.453 563.1L556.929 564.281ZM567.893 567.239L567.772 568.526C571.394 568.872 574.957 568.606 578.447 567.777L578.148 566.518L577.848 565.263C574.629 566.027 571.35 566.27 568.017 565.953L567.893 567.239ZM578.148 566.518L578.447 567.777C581.708 567.001 584.896 565.733 588.001 564.02L587.376 562.888L586.754 561.759C583.832 563.369 580.86 564.547 577.848 565.263L578.148 566.518ZM587.376 562.888L588.001 564.02C590.885 562.428 593.698 560.455 596.434 558.127L595.597 557.142L594.76 556.158C592.138 558.388 589.466 560.261 586.754 561.759L587.376 562.888ZM595.597 557.142L596.434 558.127C599.315 555.678 602.118 552.836 604.831 549.64L603.847 548.805L602.862 547.968C600.227 551.071 597.522 553.812 594.76 556.158L595.597 557.142ZM603.847 548.805L604.831 549.64C607.435 546.578 609.959 543.186 612.401 539.497L611.324 538.783L610.246 538.07C607.854 541.685 605.392 544.992 602.862 547.968L603.847 548.805ZM611.324 538.783L612.401 539.497C614.783 535.9 617.085 532.02 619.307 527.881L618.167 527.271L617.031 526.659C614.842 530.736 612.579 534.549 610.246 538.07L611.324 538.783ZM618.167 527.271L619.307 527.881C621.552 523.7 623.712 519.257 625.781 514.575L624.601 514.053L623.42 513.529C621.374 518.156 619.24 522.54 617.031 526.659L618.167 527.271ZM624.601 514.053L625.781 514.575C628.161 509.199 630.424 503.51 632.561 497.549L631.344 497.115L630.127 496.679C628.011 502.585 625.771 508.214 623.42 513.529L624.601 514.053ZM631.344 497.115L632.561 497.549C634.651 491.718 636.619 485.626 638.462 479.314L637.221 478.953L635.981 478.591C634.152 484.856 632.199 490.899 630.127 496.679L631.344 497.115ZM637.221 478.953L638.462 479.314C640.756 471.442 642.854 463.226 644.732 454.742L643.471 454.463L642.21 454.184C640.342 462.617 638.26 470.776 635.981 478.591L637.221 478.953ZM643.471 454.463L644.732 454.742C646.905 444.932 648.791 434.76 650.359 424.343L649.083 424.152L647.806 423.958C646.243 434.318 644.37 444.431 642.21 454.184L643.471 454.463ZM649.083 424.152L650.359 424.343C652.421 410.666 653.94 396.564 654.857 382.306L653.568 382.223L652.279 382.14C651.367 396.324 649.855 410.353 647.806 423.958L649.083 424.152ZM653.568 382.223L654.857 382.306C655.981 364.851 656.203 347.158 655.415 329.711L654.123 329.771L652.834 329.828C653.617 347.174 653.397 364.773 652.279 382.14L653.568 382.223ZM654.123 329.771L655.415 329.711C654.438 308.107 651.912 286.873 647.628 266.935L646.365 267.206L645.104 267.478C649.351 287.255 651.863 308.345 652.834 329.828L654.123 329.771ZM646.365 267.206L647.628 266.935C642.479 242.967 634.783 220.847 624.159 202.201L623.035 202.839L621.914 203.48C632.375 221.839 639.994 243.696 645.104 267.478L646.365 267.206ZM623.035 202.839L624.159 202.201C613.907 184.209 600.917 169.425 584.837 159.365L584.152 160.46L583.465 161.556C599.103 171.34 611.822 185.769 621.914 203.48L623.035 202.839ZM584.152 160.46L584.837 159.365C578.148 155.179 570.932 151.816 563.168 149.379L562.78 150.612L562.393 151.844C569.945 154.213 576.962 157.484 583.465 161.556L584.152 160.46ZM535.653 543.119L534.916 544.178L535.185 544.364L535.921 543.305L536.658 542.243L536.389 542.057L535.653 543.119ZM535.921 543.305L535.185 544.367C535.787 544.783 536.386 545.188 536.983 545.583L537.696 544.506L538.409 543.431C537.828 543.044 537.247 542.648 536.658 542.243L535.921 543.305ZM537.696 544.506L536.983 545.583C538.161 546.366 539.329 547.105 540.484 547.805L541.153 546.7L541.822 545.596C540.698 544.914 539.562 544.193 538.409 543.431L537.696 544.506ZM541.153 546.7L540.484 547.805C543.091 549.384 545.633 550.753 548.116 551.921L548.666 550.753L549.217 549.583C546.822 548.459 544.357 547.131 541.822 545.596L541.153 546.7ZM548.666 550.753L548.116 551.921C552.389 553.928 556.479 555.339 560.393 556.181L560.664 554.918L560.936 553.655C557.241 552.861 553.335 551.521 549.217 549.583L548.666 550.753ZM560.664 554.918L560.393 556.181C564.806 557.127 568.989 557.352 572.942 556.889L572.792 555.605L572.642 554.324C568.999 554.747 565.1 554.549 560.936 553.655L560.664 554.918ZM572.792 555.605L572.942 556.889C576.67 556.455 580.176 555.411 583.454 553.812L582.888 552.65L582.32 551.49C579.302 552.962 576.078 553.923 572.642 554.324L572.792 555.605ZM582.888 552.65L583.454 553.812C586.462 552.345 589.267 550.412 591.877 548.061L591.011 547.103L590.146 546.142C587.702 548.345 585.092 550.136 582.32 551.49L582.888 552.65ZM591.011 547.103L591.877 548.061C594.46 545.733 596.85 542.995 599.051 539.889L597.997 539.143L596.943 538.396C594.838 541.367 592.572 543.958 590.146 546.142L591.011 547.103ZM597.997 539.143L599.051 539.889C601.155 536.921 603.087 533.616 604.852 530.01L603.692 529.441L602.532 528.875C600.819 532.374 598.956 535.556 596.943 538.396L597.997 539.143ZM603.692 529.441L604.852 530.01C606.546 526.542 608.091 522.794 609.484 518.792L608.265 518.365L607.045 517.942C605.681 521.858 604.175 525.511 602.532 528.875L603.692 529.441ZM608.265 518.365L609.484 518.792C610.851 514.865 612.075 510.689 613.16 506.295L611.905 505.987L610.652 505.677C609.585 510.002 608.383 514.097 607.045 517.942L608.265 518.365ZM611.905 505.987L613.16 506.295C614.359 501.425 615.388 496.281 616.245 490.899L614.969 490.698L613.695 490.494C612.848 495.811 611.832 500.882 610.652 505.677L611.905 505.987ZM614.969 490.698L616.245 490.899C617.059 485.796 617.721 480.477 618.23 474.974L616.943 474.855L615.656 474.734C615.152 480.188 614.499 485.45 613.695 490.494L614.969 490.698ZM616.943 474.855L618.23 474.974C618.842 468.344 619.235 461.444 619.41 454.328L618.121 454.295L616.829 454.264C616.653 461.327 616.263 468.169 615.656 474.734L616.943 474.855ZM618.121 454.295L619.41 454.328C619.609 446.392 619.537 438.183 619.198 429.776L617.907 429.828L616.615 429.88C616.953 438.235 617.023 446.386 616.829 454.264L618.121 454.295ZM617.907 429.828L619.198 429.776C618.767 419.093 617.907 408.087 616.625 396.903L615.341 397.05L614.06 397.195C615.333 408.32 616.188 419.264 616.615 429.88L617.907 429.828ZM615.341 397.05L616.625 396.903C615.093 383.533 612.956 369.907 610.228 356.278L608.962 356.532L607.694 356.785C610.409 370.344 612.535 383.897 614.06 397.195L615.341 397.05ZM608.962 356.532L610.228 356.278C606.823 339.273 602.495 322.26 597.266 305.725L596.034 306.113L594.804 306.503C600.002 322.945 604.307 339.867 607.694 356.785L608.962 356.532ZM596.034 306.113L597.266 305.725C590.539 284.449 582.315 263.959 572.639 245.298L571.492 245.892L570.345 246.486C579.943 264.998 588.113 285.349 594.804 306.503L596.034 306.113ZM571.492 245.892L572.639 245.298C561.781 224.355 549.082 205.694 534.593 190.807L533.668 191.709L532.741 192.61C547.01 207.27 559.572 225.709 570.345 246.486L571.492 245.892ZM533.668 191.709L534.593 190.807C520.032 175.848 503.639 164.682 485.477 158.882L485.084 160.111L484.691 161.344C502.361 166.986 518.402 177.879 532.741 192.61L533.668 191.709ZM485.084 160.111L485.477 158.882C477.571 156.357 469.337 154.851 460.783 154.487L460.729 155.779L460.674 157.068C468.993 157.422 477 158.887 484.691 161.344L485.084 160.111ZM532.436 541.315L531.697 540.254C517.384 550.213 505.192 553.817 495.013 552.57C484.875 551.327 476.455 545.235 469.73 535.195C456.218 515.02 449.852 479.325 450.482 437.445C451.112 395.632 458.713 347.908 472.887 303.875C487.066 259.825 507.786 219.578 534.583 192.621L533.668 191.709L532.751 190.799C505.556 218.154 484.673 258.825 470.427 303.082C456.176 347.357 448.534 395.335 447.898 437.406C447.265 479.405 453.611 515.774 467.583 536.631C474.597 547.108 483.614 553.776 494.7 555.135C505.748 556.489 518.575 552.533 533.172 542.375L532.436 541.315ZM533.668 191.709L534.583 192.621C549.415 177.701 566.08 166.88 584.501 161.703L584.152 160.46L583.8 159.215C564.858 164.54 547.821 175.639 532.751 190.799L533.668 191.709ZM584.152 160.46L584.501 161.703C591.246 159.807 598.238 158.667 605.464 158.36L605.41 157.071L605.355 155.779C597.925 156.094 590.737 157.267 583.8 159.215L584.152 160.46ZM533.222 541.705L532.235 540.874C519.464 556.001 507.246 562.488 495.966 562.519C484.686 562.552 473.931 556.132 464.085 544.514C444.369 521.246 428.901 477.818 420.864 427.759C412.834 377.748 412.255 321.353 422.124 272.307C432.004 223.213 452.296 181.752 485.761 161.212L485.084 160.111L484.41 159.011C450.032 180.108 429.524 222.438 419.593 271.798C409.648 321.201 410.243 377.913 418.311 428.167C426.374 478.371 441.935 522.37 462.113 546.183C472.218 558.104 483.629 565.139 495.974 565.102C508.318 565.066 521.19 557.961 534.208 542.54L533.222 541.705ZM485.084 160.111L485.761 161.212C492.127 157.306 498.976 154.151 506.329 151.844L505.941 150.612L505.556 149.379C497.997 151.751 490.954 154.996 484.41 159.011L485.084 160.111ZM534.079 541.879L532.911 541.331C524.091 560.098 513.367 569.554 501.805 572.011C490.212 574.473 477.344 569.996 464.038 559.889C437.414 539.664 409.863 497.5 388.995 447.539C368.145 397.616 354.065 340.134 354.233 289.436C354.401 238.697 368.822 195.085 404.582 172.371L403.889 171.28L403.197 170.19C366.34 193.603 351.82 238.335 351.649 289.425C351.479 340.557 365.665 398.386 386.61 448.536C407.54 498.647 435.314 541.31 462.475 561.945C476.057 572.264 489.696 577.225 502.34 574.538C515.015 571.846 526.256 561.568 535.25 542.429L534.079 541.879ZM534.955 541.827L533.684 541.597C533.433 542.99 533.165 544.343 532.875 545.658L534.136 545.935L535.397 546.214C535.694 544.865 535.97 543.478 536.226 542.054L534.955 541.827ZM534.136 545.935L532.875 545.658C528.674 564.751 520.394 575.602 509.6 580.129C498.746 584.681 484.963 583.015 469.394 576.165C438.267 562.47 400.926 528.439 368.145 485.515C335.385 442.62 307.317 391.023 294.629 342.379C281.934 293.701 284.708 248.295 313.123 217.366L312.172 216.493L311.221 215.62C281.928 247.501 279.342 294.006 292.131 343.032C304.925 392.092 333.184 443.994 366.091 487.083C398.975 530.141 436.639 564.578 468.353 578.532C484.208 585.505 498.8 587.458 510.6 582.511C522.453 577.54 531.095 565.769 535.397 546.214L534.136 545.935ZM535.787 541.548L534.5 541.656C534.549 542.24 534.593 542.819 534.632 543.393L535.921 543.305L537.211 543.217C537.169 542.628 537.125 542.036 537.074 541.439L535.787 541.548ZM535.921 543.305L534.632 543.393C534.746 545.054 534.818 546.669 534.847 548.239L536.138 548.214L537.43 548.19C537.399 546.576 537.327 544.917 537.211 543.217L535.921 543.305ZM536.138 548.214L534.847 548.239C535.206 567.087 529.607 579.209 519.996 586.022C510.323 592.881 496.263 594.594 479.219 591.858C445.139 586.386 400.04 563.271 357.176 530.586C314.332 497.919 273.893 455.827 249.07 412.583C224.232 369.307 215.181 325.167 234.517 288.139L233.372 287.542L232.228 286.945C212.29 325.123 221.811 370.279 246.83 413.869C271.868 457.488 312.575 499.828 355.607 532.64C398.616 565.433 444.119 588.838 478.808 594.408C496.147 597.193 511.016 595.555 521.489 588.13C532.031 580.658 537.8 567.562 537.43 548.19L536.138 548.214ZM536.518 541.062L535.301 541.501C535.717 542.654 536.107 543.788 536.467 544.904L537.696 544.506L538.926 544.108C538.554 542.964 538.159 541.804 537.732 540.626L536.518 541.062ZM537.696 544.506L536.467 544.904C537.298 547.475 537.986 549.95 538.536 552.329L539.794 552.037L541.052 551.748C540.487 549.291 539.779 546.746 538.926 544.108L537.696 544.506ZM539.794 552.037L538.536 552.329C542.466 569.347 539.321 581.439 531.23 589.507C523.063 597.653 509.602 601.97 492.331 602.782C457.814 604.407 409.005 591.993 360.206 570.081C311.43 548.177 262.846 516.869 228.758 480.875C194.647 444.857 175.254 404.38 184.253 364.04L182.992 363.758L181.731 363.476C172.456 405.052 192.526 446.376 226.882 482.652C261.262 518.957 310.157 550.438 359.147 572.437C408.111 594.424 457.354 607.016 492.452 605.363C509.987 604.538 524.223 600.146 533.054 591.336C541.962 582.451 545.116 569.345 541.052 551.748L539.794 552.037ZM537.097 540.406L536.038 541.142C537.51 543.261 538.843 545.33 540.04 547.358L541.153 546.7L542.264 546.043C541.032 543.958 539.665 541.832 538.156 539.667L537.097 540.406ZM541.153 546.7L540.04 547.358C542.344 551.254 544.145 554.98 545.481 558.54L546.69 558.085L547.899 557.631C546.506 553.913 544.633 550.051 542.264 546.043L541.153 546.7ZM546.69 558.085L545.481 558.54C550.78 572.665 548.744 584.193 541.282 593.403C533.743 602.712 520.541 609.812 503.198 614.645C468.541 624.305 418.055 624.711 365.882 616.358C313.727 608.008 260.056 590.928 219.026 565.756C177.972 540.569 149.822 507.442 148.111 467.047L146.822 467.102L145.53 467.156C147.295 508.803 176.303 542.576 217.674 567.957C259.071 593.357 313.092 610.522 365.474 618.908C417.841 627.295 468.738 626.933 503.893 617.136C521.453 612.24 535.263 604.942 543.29 595.031C551.395 585.022 553.479 572.512 547.899 557.631L546.69 558.085ZM537.487 539.62L536.655 540.607C541.037 544.307 544.693 547.966 547.672 551.575L548.666 550.753L549.664 549.929C546.571 546.183 542.801 542.416 538.322 538.634L537.487 539.62ZM548.666 550.753L547.672 551.575C551.374 556.06 554.025 560.462 555.727 564.756L556.929 564.281L558.13 563.803C556.308 559.217 553.505 554.587 549.664 549.929L548.666 550.753ZM556.929 564.281L555.727 564.756C560.261 576.183 558.182 587.089 550.831 597.276C543.437 607.522 530.718 617.012 514.082 625.342C480.826 641.993 432.368 653.797 381.172 657.91C329.983 662.026 276.198 658.44 232.295 644.429C188.369 630.411 154.586 606.045 142.887 568.766L141.655 569.154L140.422 569.541C152.483 607.972 187.211 632.754 231.507 646.891C275.826 661.034 329.97 664.617 381.381 660.486C432.784 656.355 481.594 644.499 515.237 627.651C532.051 619.234 545.186 609.514 552.927 598.787C560.708 588.003 563.039 576.176 558.13 563.803L556.929 564.281ZM537.663 538.763L537.112 539.931C547.256 544.697 554.665 550.038 559.693 555.768L560.664 554.918L561.636 554.065C556.309 547.991 548.573 542.46 538.21 537.592L537.663 538.763ZM560.664 554.918L559.693 555.768C563.026 559.568 565.315 563.539 566.669 567.645L567.893 567.239L569.121 566.834C567.65 562.372 565.175 558.098 561.636 554.065L560.664 554.918ZM567.893 567.239L566.669 567.645C570.004 577.76 567.725 588.949 560.739 600.666C553.751 612.39 542.119 624.51 527.031 636.353C496.86 660.029 453.107 682.398 405.884 698.119C358.661 713.84 308.077 722.875 264.251 719.971C220.41 717.069 183.571 702.247 163.414 670.513L162.324 671.205L161.233 671.898C182.016 704.616 219.834 719.619 264.081 722.549C308.343 725.482 359.273 716.359 406.7 700.571C454.13 684.782 498.165 662.287 528.625 638.384C543.85 626.434 555.748 614.087 562.959 601.991C570.175 589.89 572.771 577.907 569.121 566.836L567.893 567.239ZM537.608 537.887L537.379 539.158C554.503 542.23 565.576 548.304 571.766 556.391L572.792 555.605L573.818 554.822C567.087 546.028 555.301 539.747 537.836 536.616L537.608 537.887ZM572.792 555.605L571.766 556.391C574.19 559.561 575.884 563.061 576.9 566.854L578.148 566.518L579.396 566.185C578.295 562.075 576.453 558.266 573.818 554.822L572.792 555.605ZM578.148 566.518L576.9 566.854C579.545 576.726 577.621 588.691 571.797 601.996C565.981 615.284 556.334 629.775 543.755 644.61C518.598 674.277 481.839 705.175 440.992 730.424C400.143 755.673 355.292 775.223 313.973 782.279C272.64 789.335 235.049 783.866 208.41 759.389L207.534 760.339L206.661 761.29C234.124 786.524 272.664 791.952 314.407 784.824C356.158 777.696 401.324 757.981 442.351 732.62C483.384 707.257 520.363 676.192 545.726 646.282C558.406 631.328 568.214 616.624 574.164 603.032C580.103 589.458 582.253 576.853 579.396 566.185L578.148 566.518ZM537.329 537.055L537.438 538.342C560.566 536.386 574.644 542.354 581.806 553.355L582.888 552.65L583.971 551.947C576.07 539.812 560.814 533.771 537.221 535.768L537.329 537.055ZM582.888 552.65L581.806 553.355C583.705 556.272 585.139 559.574 586.131 563.227L587.376 562.888L588.624 562.552C587.57 558.667 586.033 555.114 583.971 551.947L582.888 552.65ZM587.376 562.888L586.131 563.227C588.906 573.463 588.172 586.42 584.4 601.221C580.633 616.004 573.861 632.524 564.677 649.826C546.313 684.433 518.363 722.056 485.776 755.015C453.187 787.979 416.017 816.217 379.234 832.127C342.446 848.039 306.222 851.556 275.307 835.411L274.71 836.555L274.11 837.7C305.976 854.343 343.082 850.579 380.26 834.499C417.443 818.416 454.879 789.942 487.616 756.831C520.358 723.714 548.462 685.893 566.961 651.038C576.21 633.612 583.072 616.896 586.903 601.859C590.732 586.838 591.562 573.388 588.624 562.552L587.376 562.888ZM536.846 536.324L537.285 537.538C550.785 532.671 561.713 531.606 570.348 533.544C578.938 535.471 585.377 540.398 589.911 547.78L591.011 547.103L592.112 546.426C587.242 538.499 580.235 533.115 570.914 531.022C561.633 528.94 550.18 530.141 536.407 535.107L536.846 536.324ZM591.011 547.103L589.911 547.78C591.683 550.663 593.166 553.931 594.37 557.551L595.597 557.142L596.822 556.737C595.566 552.954 594.003 549.503 592.112 546.426L591.011 547.103ZM595.597 557.142L594.37 557.551C601.485 578.951 598.638 612.235 588.084 649.868C577.551 687.433 559.409 729.096 536.206 767.121C512.997 805.157 484.769 839.48 454.104 862.433C423.437 885.383 390.468 896.869 357.666 889.55L357.385 890.811L357.103 892.072C390.907 899.613 424.638 887.711 455.652 864.5C486.665 841.289 515.098 806.676 538.409 768.467C561.729 730.253 579.972 688.373 590.572 650.565C601.154 612.821 604.19 578.901 596.822 556.737L595.597 557.142ZM536.19 535.743L536.926 536.802C550.612 527.279 562.344 523.628 572.216 524.512C582.044 525.393 590.278 530.79 596.956 539.905L597.997 539.143L599.041 538.378C592.037 528.821 583.188 522.899 572.446 521.938C561.744 520.982 549.413 524.966 535.451 534.683L536.19 535.743ZM597.997 539.143L596.956 539.905C599.02 542.721 600.932 545.891 602.694 549.386L603.847 548.805L605.001 548.224C603.185 544.617 601.198 541.323 599.041 538.378L597.997 539.143ZM603.847 548.805L602.694 549.386C613.62 571.076 618.547 605.016 617.64 643.956C616.736 682.857 610.019 726.585 597.806 767.744C585.591 808.914 567.898 847.443 545.091 875.999C522.288 904.55 494.468 923.023 461.966 924.4L462.02 925.689L462.075 926.981C495.579 925.563 524.027 906.514 547.111 877.611C570.193 848.709 588.009 809.844 600.284 768.48C612.561 727.104 619.315 683.149 620.224 644.018C621.133 604.926 616.214 570.479 605.001 548.224L603.847 548.805ZM535.402 535.352L536.389 536.184C548.62 521.696 560.414 515.193 571.407 514.735C582.392 514.281 592.949 519.848 602.749 530.325L603.692 529.441L604.635 528.56C594.546 517.771 583.312 511.658 571.301 512.154C559.3 512.653 546.894 519.737 534.415 534.518L535.402 535.352ZM603.692 529.441L602.749 530.325C605.317 533.071 607.831 536.153 610.277 539.54L611.324 538.783L612.37 538.029C609.869 534.564 607.288 531.397 604.635 528.56L603.692 529.441ZM611.324 538.783L610.277 539.54C625.402 560.486 637.883 592.982 646.171 630.64C654.451 668.273 658.521 710.946 656.89 752.17C655.26 793.402 647.933 833.106 633.48 864.843C619.033 896.572 597.522 920.22 567.56 929.624L567.945 930.857L568.333 932.089C599.219 922.395 621.193 898.06 635.831 865.913C650.468 833.773 657.833 793.707 659.471 752.271C661.109 710.825 657.022 667.929 648.693 630.085C640.371 592.266 627.789 559.38 612.37 538.029L611.324 538.783ZM534.542 535.177L535.712 535.727C544.796 516.391 555.949 506.969 567.997 504.925C580.098 502.871 593.566 508.173 607.453 519.373L608.265 518.365L609.076 517.36C594.946 505.967 580.731 500.143 567.565 502.378C554.345 504.621 542.641 514.901 533.374 534.626L534.542 535.177ZM608.265 518.365L607.453 519.373C610.711 522 613.985 524.948 617.261 528.188L618.167 527.271L619.077 526.351C615.749 523.057 612.411 520.05 609.076 517.36L608.265 518.365ZM618.167 527.271L617.261 528.188C655.798 566.34 693.877 644.734 709.389 721.846C717.142 760.386 719.235 798.497 712.988 831.016C706.741 863.523 692.187 890.338 666.721 906.514L667.413 907.604L668.106 908.694C694.352 892.023 709.19 864.469 715.525 831.502C721.855 798.546 719.716 760.076 711.923 721.338C696.344 643.902 658.092 564.976 619.077 526.351L618.167 527.271ZM533.666 535.231L534.937 535.458C539.148 511.989 548.997 499.782 562.078 495.865C575.298 491.907 592.332 496.234 611.261 507.106L611.905 505.987L612.548 504.866C593.43 493.883 575.595 489.119 561.336 493.39C546.938 497.702 536.691 511.043 532.395 535.004L533.666 535.231ZM611.905 505.987L611.261 507.106C615.39 509.478 619.599 512.154 623.864 515.115L624.601 514.053L625.337 512.991C621.017 509.994 616.747 507.276 612.548 504.866L611.905 505.987ZM624.601 514.053L623.864 515.115C670.093 547.18 722.759 612.176 753.964 679.93C769.563 713.799 779.758 748.274 781.146 779.598C782.531 810.908 775.116 838.981 755.596 860.226L756.547 861.1L757.498 861.973C777.611 840.082 785.132 811.262 783.727 779.481C782.321 747.716 771.995 712.905 756.312 678.85C724.955 610.762 672.017 545.372 625.337 512.991L624.601 514.053ZM532.834 535.51L534.121 535.401C533.012 522.277 534.469 511.999 537.955 504.225C541.424 496.477 546.933 491.145 554.084 487.91C568.482 481.392 589.73 483.309 614.548 491.917L614.969 490.698L615.393 489.476C590.425 480.815 568.361 478.612 553.017 485.554C545.297 489.049 539.327 494.842 535.596 503.169C531.878 511.467 530.413 522.217 531.547 535.619L532.834 535.51ZM614.969 490.698L614.548 491.917C619.834 493.751 625.272 495.885 630.83 498.299L631.344 497.115L631.858 495.929C626.249 493.493 620.748 491.333 615.393 489.476L614.969 490.698ZM631.344 497.115L630.83 498.299C683.889 521.347 747.308 569.727 790.999 624.667C812.844 652.131 829.704 681.17 837.905 709.44C846.097 737.692 845.624 765.106 832.91 789.454L834.055 790.051L835.2 790.65C848.301 765.563 848.712 737.428 840.385 708.719C832.063 680.023 814.993 650.687 793.022 623.058C749.086 567.813 685.333 519.158 631.858 495.929L631.344 497.115ZM532.103 535.996L533.317 535.556C528.357 521.796 527.339 510.653 529.421 501.843C531.493 493.075 536.668 486.486 544.375 481.841C559.91 472.478 585.73 471.018 616.731 476.129L616.943 474.855L617.152 473.579C586.033 468.45 559.409 469.763 543.042 479.629C534.797 484.598 529.155 491.741 526.907 501.249C524.67 510.713 525.825 522.393 530.889 536.432L532.103 535.996ZM616.943 474.855L616.731 476.129C623.26 477.204 630.008 478.57 636.922 480.208L637.221 478.953L637.519 477.694C630.551 476.043 623.745 474.666 617.152 473.579L616.943 474.855ZM637.221 478.953L636.922 480.208C693.554 493.635 761.216 525.372 811.836 566.503C862.537 607.696 895.72 657.936 884.464 708.386L885.727 708.668L886.988 708.949C898.583 656.97 864.324 605.82 813.466 564.498C762.528 523.111 694.513 491.207 637.519 477.694L637.221 478.953ZM531.522 536.652L532.583 535.913C523.337 522.626 519.578 511.186 520.099 501.507C520.619 491.878 525.391 483.781 533.663 477.16C550.317 463.828 580.938 456.664 618.157 455.587L618.121 454.295L618.082 453.006C580.752 454.083 549.395 461.255 532.049 475.142C523.324 482.128 518.087 490.863 517.521 501.37C516.955 511.831 521.03 523.837 530.462 537.391L531.522 536.652ZM618.121 454.295L618.157 455.587C626.301 455.351 634.749 455.408 643.42 455.754L643.471 454.463L643.523 453.171C634.795 452.825 626.29 452.768 618.082 453.006L618.121 454.295ZM643.471 454.463L643.42 455.754C700.855 458.038 767.956 472.974 821.171 499.459C874.452 525.977 913.408 563.849 915.441 611.837L916.73 611.783L918.022 611.729C915.926 562.279 875.842 523.781 822.32 497.144C768.734 470.473 701.266 455.468 643.523 453.171L643.471 454.463ZM531.131 537.437L531.966 536.45C518.224 524.85 511.607 513.728 510.481 503.383C509.357 493.074 513.653 483.223 522.43 474.064C540.047 455.674 575.298 440.553 618.186 431.092L617.907 429.828L617.628 428.567C574.626 438.057 538.735 453.313 520.565 472.277C511.444 481.795 506.683 492.364 507.913 503.662C509.14 514.927 516.289 526.599 530.299 538.424L531.131 537.437ZM617.907 429.828L618.186 431.092C628.187 428.883 638.591 426.986 649.269 425.431L649.083 424.152L648.897 422.873C638.159 424.439 627.693 426.346 617.628 428.567L617.907 429.828ZM649.083 424.152L649.269 425.431C703.669 417.497 765.047 418.375 816.091 431.763C867.179 445.167 907.576 470.998 920.665 512.702L921.897 512.314L923.13 511.93C909.643 468.954 868.159 442.751 816.745 429.265C765.29 415.766 703.547 414.903 648.897 422.873L649.083 424.152ZM530.958 538.298L531.506 537.127C513.323 528.583 503.877 518.28 501.066 507.194C498.25 496.1 501.976 483.81 511.072 471.062C529.279 445.547 568.477 418.977 615.86 398.233L615.341 397.05L614.824 395.867C567.304 416.67 527.587 443.472 508.969 469.564C499.65 482.621 495.483 495.697 498.56 507.829C501.64 519.97 511.871 530.756 530.408 539.465L530.958 538.298ZM615.341 397.05L615.86 398.233C628.109 392.87 640.893 387.902 653.984 383.445L653.568 382.223L653.152 381.001C639.991 385.478 627.14 390.472 614.824 395.867L615.341 397.05ZM653.568 382.223L653.984 383.445C701.31 367.339 752.602 357.947 797.218 360.756C841.852 363.564 879.56 378.559 900.138 410.955L901.228 410.263L902.319 409.57C881.11 376.182 842.418 361.012 797.381 358.177C752.328 355.341 700.687 364.822 653.152 381.001L653.568 382.223ZM531.013 539.174L531.24 537.9C508.881 533.89 496.71 524.827 492.155 512.803C487.569 500.691 490.515 485.094 499.557 467.598C517.624 432.644 559.489 391.183 609.68 357.604L608.962 356.532L608.244 355.457C557.882 389.15 515.614 430.908 497.263 466.409C488.099 484.14 484.764 500.577 489.74 513.717C494.749 526.945 507.982 536.355 530.783 540.445L531.013 539.174ZM608.962 356.532L609.68 357.604C624.138 347.931 639.275 338.922 654.718 330.915L654.123 329.771L653.529 328.624C637.997 336.674 622.777 345.735 608.244 355.457L608.962 356.532ZM654.123 329.771L654.718 330.915C691.234 311.988 729.394 298.711 764.257 295.561C799.114 292.409 830.552 299.385 853.851 320.79L854.724 319.837L855.597 318.886C831.593 296.833 799.339 289.795 764.024 292.988C728.719 296.179 690.229 309.598 653.529 328.624L654.123 329.771ZM531.485 540.057L531.377 538.768C505.419 540.938 490.605 533.306 484.069 519.742C477.431 505.98 479.036 485.621 487.239 461.733C503.606 414.058 545.827 353.555 596.904 307.069L596.034 306.113L595.166 305.159C543.861 351.85 501.34 412.704 484.795 460.896C476.538 484.941 474.644 506.145 481.741 520.866C488.934 535.786 505.081 543.558 531.591 541.344L531.485 540.057ZM596.034 306.113L596.904 307.069C612.941 292.474 629.838 279.275 647.06 268.297L646.365 267.206L645.672 266.116C628.305 277.187 611.295 290.479 595.166 305.159L596.034 306.113ZM646.365 267.206L647.06 268.297C695.184 237.619 745.544 224.469 786.954 246.06L787.55 244.913L788.147 243.768C745.487 221.523 694.048 235.281 645.672 266.116L646.365 267.206ZM532.209 540.39L531.77 539.176C517.609 544.284 506.184 545.224 497.196 542.912C488.249 540.61 481.568 535.05 476.912 526.837C467.534 510.289 466.43 483.032 472.14 450.67C483.542 386.054 521.872 302.338 572.448 246.763L571.492 245.892L570.536 245.024C519.614 300.979 481.077 385.15 469.595 450.22C463.865 482.701 464.818 510.736 474.664 528.111C479.622 536.859 486.843 542.917 496.55 545.413C506.215 547.898 518.195 546.818 532.645 541.607L532.209 540.39ZM571.492 245.892L572.448 246.763C588.482 229.142 605.72 214.385 623.683 203.958L623.035 202.839L622.386 201.723C604.136 212.316 586.699 227.264 570.536 245.024L571.492 245.892ZM623.035 202.839L623.683 203.958C648.414 189.603 674.479 183.483 700.718 189.334L701 188.074L701.282 186.813C674.255 180.785 647.525 187.133 622.386 201.723L623.035 202.839ZM924.486 540.734H921.902C921.902 756.193 747.239 930.857 531.78 930.857V933.44V936.024C750.091 936.024 927.07 759.048 927.07 540.734H924.486ZM531.78 933.44V930.857C316.321 930.857 141.657 756.193 141.657 540.734H139.074H136.49C136.49 759.048 313.466 936.024 531.78 936.024V933.44ZM139.074 540.734H141.657C141.657 325.275 316.321 150.612 531.78 150.612V148.028V145.444C313.466 145.444 136.49 322.42 136.49 540.734H139.074ZM531.78 148.028V150.612C747.239 150.612 921.902 325.275 921.902 540.734H924.486H927.07C927.07 322.42 750.091 145.444 531.78 145.444V148.028ZM542.114 539.442H539.531C539.531 545.862 534.325 551.068 527.905 551.068V553.652V556.236C537.18 556.236 544.698 548.717 544.698 539.442H542.114ZM527.905 553.652V551.068C521.482 551.068 516.278 545.862 516.278 539.442H513.695H511.111C511.111 548.717 518.629 556.236 527.905 556.236V553.652ZM513.695 539.442H516.278C516.278 533.022 521.482 527.816 527.905 527.816V525.232V522.649C518.629 522.649 511.111 530.167 511.111 539.442H513.695ZM527.905 525.232V527.816C534.325 527.816 539.531 533.022 539.531 539.442H542.114H544.698C544.698 530.167 537.18 522.649 527.905 522.649V525.232Z" fill="url(#paint0_radial_48_1294)"/>
<path d="M527.903 551.068C534.323 551.068 539.529 545.863 539.529 539.442C539.529 533.021 534.323 527.815 527.903 527.815C521.482 527.815 516.276 533.021 516.276 539.442C516.276 545.863 521.482 551.068 527.903 551.068Z" fill="#03ECFE"/>
</g>
</g>
<defs>
<filter id="filter0_f_48_1294" x="-120" y="-120" width="1320" height="1320" filterUnits="userSpaceOnUse" color-interpolation-filters="sRGB">
<feFlood flood-opacity="0" result="BackgroundImageFix"/>
<feBlend mode="normal" in="SourceGraphic" in2="BackgroundImageFix" result="shape"/>
<feGaussianBlur stdDeviation="60" result="effect1_foregroundBlur_48_1294"/>
</filter>
<filter id="filter1_f_48_1294" x="87" y="87" width="907" height="907" filterUnits="userSpaceOnUse" color-interpolation-filters="sRGB">
<feFlood flood-opacity="0" result="BackgroundImageFix"/>
<feBlend mode="normal" in="SourceGraphic" in2="BackgroundImageFix" result="shape"/>
<feGaussianBlur stdDeviation="40" result="effect1_foregroundBlur_48_1294"/>
</filter>
<radialGradient id="paint0_radial_48_1294" cx="0" cy="0" r="1" gradientUnits="userSpaceOnUse" gradientTransform="translate(531.78 540.734) rotate(90) scale(392.706 392.706)">
<stop stop-color="#00F0FF"/>
<stop offset="1" stop-color="#7B5BFF"/>
</radialGradient>
<clipPath id="clip0_48_1294">
<rect width="1080" height="1080" fill="white"/>
</clipPath>
</defs>
</svg>
