<svg width="1080" height="1080" viewBox="0 0 1080 1080" fill="none" xmlns="http://www.w3.org/2000/svg">
<g clip-path="url(#clip0_48_1351)">
<g filter="url(#filter0_dd_48_1351)">
<path d="M480.272 474.024C543.42 503.124 709.677 425.633 804.245 668.503M480.272 474.024C519.713 531.285 469.484 708.914 724.921 760.689M480.272 474.024C568.402 506.11 668.531 457.159 786.172 680.785M480.272 474.024C526.915 555.392 494.379 661.989 734.789 739.781M480.272 474.024C607.97 537.702 668.704 516.593 773.29 691.422M480.272 474.024C564.79 588.995 553.762 652.691 743.864 725.939M480.272 474.024C600.219 556.095 654.656 559.818 766.408 698.576M480.272 474.024C581.593 578.222 593.931 631.514 749.711 717.972M480.272 474.024L757.251 707.994M860.335 280.043C884.41 345.271 1058.28 406.825 953.418 645.429M860.335 280.043C847.733 348.421 687.146 438.697 831.157 655.929M860.335 280.043C899.963 365.048 1005.84 399.5 930.902 640.812M860.335 280.043C835.779 370.56 737.418 423.037 852.406 648.039M860.335 280.043C905.604 415.366 963.47 442.857 913.801 640.434M860.335 280.043C838.8 421.103 784.862 458.195 867.49 644.411M860.335 280.043C887.117 422.891 923.052 462.742 903.956 639.88M860.335 280.043C858.3 425.366 828.581 471.322 877.598 642.61M860.335 280.043L890.989 640.994M1266.79 410.865C1237.69 474.012 1320.44 639.053 1077.57 733.621M1266.79 410.865C1209.53 450.305 1032.45 398.332 980.675 653.769M1266.79 410.865C1234.7 498.994 1287.91 597.06 1064.28 714.702M1266.79 410.865C1185.42 457.507 1079.8 422.724 1002.01 663.134M1266.79 410.865C1203.11 538.563 1228.24 597.52 1053.41 702.107M1266.79 410.865C1151.82 495.382 1089.52 481.604 1016.27 671.706M1266.79 410.865C1184.72 530.812 1184.04 582.655 1045.28 694.407M1266.79 410.865C1162.59 512.185 1110.7 521.773 1024.24 677.553M1266.79 410.865L1035.22 685.94M1461.7 790.847C1457.13 792.534 1452.6 794.971 1448.06 798.008M1461.7 790.847C1456.82 789.948 1451.86 788.286 1446.77 786.025M1461.7 790.847C1457 793.039 1452.47 795.44 1448.06 798.008M1461.7 790.847C1456.6 789.464 1451.63 787.839 1446.77 786.025M1461.7 790.847C1326.37 836.116 1305.47 897.318 1107.89 847.648M1461.7 790.847C1320.64 769.313 1289.31 714.581 1103.09 797.209M1461.7 790.847C1318.85 817.629 1285.42 855.047 1108.29 835.951M1461.7 790.847C1316.37 788.812 1277.11 758.221 1105.82 807.238M1461.7 790.847L1107.01 821.132M1448.06 798.008C1387.8 838.314 1324.28 984.359 1102.39 886.842M1448.06 798.008C1372.84 841.872 1334.43 934.431 1106.47 863.633M1446.77 786.025C1380.51 756.593 1292.73 625.788 1090.99 759.527M1446.77 786.025C1365.29 755.65 1311.21 672.267 1098.88 780.776M349.404 880.533C354.161 878.777 358.901 876.229 363.697 873.053M349.404 880.533C354.298 881.434 359.291 883.101 364.425 885.366M349.404 880.533C354.318 878.242 359.066 875.733 363.697 873.053M349.404 880.533C354.527 881.922 359.52 883.551 364.425 885.366M349.404 880.533C484.728 835.263 512.032 777.182 709.609 826.851M349.404 880.533C490.464 902.067 526.027 955.093 712.243 872.465M349.404 880.533C492.253 853.75 531.917 817.599 709.055 836.695M349.404 880.533C494.728 882.568 539.067 911.727 710.356 862.709M349.404 880.533L709.745 850.165M363.697 873.053C424.666 832.673 494.404 690.862 715.61 788.08M363.697 873.053C439.181 829.369 483.672 740.256 711.035 810.866M364.425 885.366C431.025 914.748 521.222 1044.79 722.907 911.083M364.425 885.366C446.198 915.632 503.171 997.812 715.441 889.331M950.821 1391.38C949.096 1386.71 946.595 1382.08 943.476 1377.43M950.821 1391.38C951.688 1386.68 953.285 1381.9 955.458 1377.01M950.821 1391.38C948.576 1386.57 946.113 1381.93 943.476 1377.43M950.821 1391.38C952.153 1386.47 953.715 1381.69 955.458 1377.01M950.821 1391.38C905.552 1256.06 845.987 1235.18 895.657 1037.61M950.821 1391.38C972.355 1250.32 1028.38 1220.45 945.752 1034.24M950.821 1391.38C924.039 1248.53 888.258 1215.14 907.354 1038M950.821 1391.38C952.856 1246.06 983.734 1207.41 934.717 1036.12M950.821 1391.38L920.4 1037.81M943.476 1377.43C903.072 1317.14 759.033 1252.69 856.384 1031.18M943.476 1377.43C899.557 1302.39 807.545 1263.48 878.244 1035.84M955.458 1377.01C984.858 1310.89 1119.89 1224.68 985.79 1022.4M955.458 1377.01C985.839 1295.41 1071.44 1243.24 962.688 1030.45M544.313 1260.52C546.423 1255.94 547.955 1250.82 549.075 1245.24M544.313 1260.52C548.268 1257.79 552.796 1255.52 557.814 1253.58M544.313 1260.52C546.155 1255.46 547.719 1250.36 549.075 1245.24M544.313 1260.52C548.747 1257.97 553.25 1255.68 557.814 1253.58M544.313 1260.52C607.99 1132.82 582.966 1074.25 757.796 969.668M544.313 1260.52C659.284 1176 720.412 1191.68 793.659 1001.58M544.313 1260.52C626.384 1140.57 626.237 1089.2 764.995 977.448M544.313 1260.52C648.511 1159.2 699.737 1151.93 786.196 996.154M544.313 1260.52L774.88 986.628M549.075 1245.24C563.396 1173.83 510.225 1025.7 735.482 937.995M549.075 1245.24C571.334 1161.08 537.208 1067.7 747.997 956.812M557.814 1253.58C625.441 1227.4 782.223 1260 830.421 1022.21M557.814 1253.58C636.995 1217.15 734.452 1238.38 808.004 1011.08M1329.53 1197.98C1325.05 1195.92 1320.08 1194.43 1314.66 1193.36M1329.53 1197.98C1326.79 1194.01 1324.53 1189.46 1322.6 1184.43M1329.53 1197.98C1324.6 1196.19 1319.64 1194.67 1314.66 1193.36M1329.53 1197.98C1326.98 1193.53 1324.69 1189.01 1322.6 1184.43M1329.53 1197.98C1201.83 1134.31 1145.76 1163.08 1041.17 988.253M1329.53 1197.98C1245.02 1083.01 1263.95 1023.71 1073.85 950.457M1329.53 1197.98C1209.59 1115.91 1160.62 1118.89 1048.87 980.127M1329.53 1197.98C1228.21 1093.79 1223.78 1044.88 1068 958.424M1329.53 1197.98L1058.45 969.775M1314.66 1193.36C1243.71 1179.36 1097.44 1237.13 1009.58 1011.49M1314.66 1193.36C1230.62 1171.34 1139.13 1209.82 1028.07 998.708M1322.6 1184.43C1296.69 1116.94 1330.76 961.533 1093.06 913.352M1322.6 1184.43C1286.46 1105.3 1310.02 1008.3 1082.77 934.763" stroke="url(#paint0_radial_48_1351)" stroke-linecap="round" stroke-linejoin="round" shape-rendering="crispEdges"/>
</g>
<path d="M653.915 337.375C700.815 388.705 884.115 381.827 876.993 642.36M653.915 337.375C668.036 405.456 552.796 549.659 768.106 696.527M653.915 337.375C722.679 401.155 833.958 394.908 855.57 646.664M653.915 337.375C665.315 430.468 593.953 516.078 785.315 681.089M653.915 337.375C746.882 445.628 811.047 449.749 839.569 651.467M653.915 337.375C687.177 476.138 652.289 530.559 799.052 671.855M653.915 337.375C732.599 459.571 781.322 484.132 830.45 655.389M653.915 337.375C706.844 472.732 697.529 526.635 807.533 666.783M653.915 337.375L818.355 660.514M1079.47 306.133C1076.34 375.592 1215.25 497.27 1025.99 676.459L1046.91 694.888M1079.47 306.133C1041.32 364.258 858.28 385.12 906.676 641.219M1079.47 306.133C1083 399.855 1167.2 472.705 1004.47 666.006M1079.47 306.133C1021.71 380.021 910.688 390.202 929.321 642.196M1079.47 306.133C1068.66 448.417 1111.32 496.214 988.854 659.019M1079.47 306.133C1004.87 427.773 940.765 441.02 944.631 644.708M1079.47 306.133C1048.71 448.176 1066.35 498.851 979.996 654.687M1079.47 306.133C1021.19 439.271 975.961 470.087 954.646 646.972M1079.47 306.133L967.614 650.68M1403.28 584.47C1295.02 677.437 1297.29 741.311 1095.57 769.833M1403.28 584.47C1264.51 617.732 1214.19 579.01 1072.9 725.773M1403.28 584.47C1281.08 663.154 1262.55 709.737 1091.3 758.865M1403.28 584.47C1267.92 637.399 1218.9 624.379 1078.75 734.383M1403.28 584.47C1279.21 647.82 1085.58 746.687 1085.58 746.687M1403.28 584.47C1399.68 588.344 1396.33 592.353 1393.15 596.472M1403.28 584.47C1399.62 587.813 1396.28 591.853 1393.15 596.472M1403.28 584.47C1398.38 585.485 1393.1 585.824 1387.46 585.66M1403.28 584.47C1397.98 585.119 1392.71 585.494 1387.46 585.66M1105.8 808.738L1108.06 837.66M1105.8 808.738L1100.95 785.818M1105.8 808.738C1347.77 815.353 1352.3 656.659 1393.15 596.472M1046.91 694.888L1062.86 712.41M1046.91 694.888C1183.22 495.058 1314.61 583.536 1387.46 585.66M1100.95 785.818L1095.57 769.833M1100.95 785.818C1338.52 765.424 1339.9 665.462 1393.15 596.472M1062.86 712.41L1072.9 725.773M1062.86 712.41C1218.48 531.938 1300.38 588.412 1387.46 585.66M1095.57 769.833L1091.3 758.865M1072.9 725.773L1078.75 734.383M1091.3 758.865L1085.58 746.687M1078.75 734.383L1085.58 746.687M1435.4 1010.31C1430.54 1010.09 1425.42 1010.58 1420.06 1011.62M1435.4 1010.31C1431.26 1007.59 1427.33 1004.13 1423.52 1000.08M1435.4 1010.31C1430.22 1010.51 1425.11 1010.96 1420.06 1011.62M1435.4 1010.31C1431.24 1007.06 1427.3 1003.64 1423.52 1000.08M1435.4 1010.31C1293.12 999.505 1250.86 1048.08 1088.06 925.614M1435.4 1010.31C1313.76 935.713 1307.83 873.471 1104.14 877.337M1435.4 1010.31C1293.36 979.547 1248.76 1001.33 1092.92 914.972M1435.4 1010.31C1302.26 952.029 1279.01 908.826 1102.12 887.511M1435.4 1010.31L1098 901.645M1420.06 1011.62C1348.87 1025.37 1233.83 1135.63 1067.2 959.632L1080.41 940.051M1420.06 1011.62C1333.71 1022.85 1263.02 1093.79 1080.41 940.051M1423.52 1000.08C1373.88 947.23 1345.9 792.716 1108.06 837.66M1423.52 1000.08C1360.21 940.453 1344.67 842.405 1106.87 859.988M1108.06 837.66L1106.87 859.988M1080.41 940.051L1088.06 925.614M1106.87 859.988L1104.14 877.337M1088.06 925.614L1092.92 914.972M1104.14 877.337L1102.12 887.511M1092.92 914.972L1098 901.645M1102.12 887.511L1098 901.645M375.514 661.21C380.579 661.438 385.937 660.93 391.589 659.864M375.514 661.21C379.674 663.94 383.629 667.415 387.481 671.495M375.514 661.21C380.932 661.006 386.281 660.537 391.589 659.864M375.514 661.21C379.696 664.479 383.666 667.918 387.481 671.495M375.514 661.21C517.799 672.018 565.508 629.09 728.312 751.557M375.514 661.21C497.155 735.811 509.346 798.483 713.033 794.618M375.514 661.21C517.558 691.977 568.145 674.057 723.98 760.415M375.514 661.21C508.653 719.495 538.197 763.579 715.081 784.894M375.514 661.21L719.388 773.097M391.589 659.864C463.452 646.317 582.768 542.695 748.892 718.156M391.589 659.864C478.111 648.906 553.705 584.05 735.831 737.38M387.481 671.495C437.454 724.425 470.101 879.279 707.871 834.347M387.481 671.495C451.093 731.129 471.7 828.981 709.434 811.402M731.476 1365.45C731.701 1360.48 731.193 1355.24 730.125 1349.74M731.476 1365.45C734.103 1361.45 737.429 1357.67 741.329 1354.01M731.476 1365.45C731.277 1360.15 730.806 1354.92 730.125 1349.74M731.476 1365.45C734.611 1361.45 737.905 1357.65 741.329 1354.01M731.476 1365.45C742.285 1223.17 695.495 1180.81 817.963 1018M731.476 1365.45C806.077 1243.81 869.304 1238.03 865.438 1034.34M731.476 1365.45C762.244 1223.41 742.232 1178.74 828.59 1022.91M731.476 1365.45C789.762 1232.32 833.224 1208.68 854.539 1031.79M731.476 1365.45L840.686 1027.8M730.125 1349.74C716.291 1278.5 608.564 1163.19 784.263 996.839M730.125 1349.74C718.778 1263.54 649.083 1191.97 802.603 1009.61M741.329 1354.01C794.089 1304.49 951.995 1277.45 906.931 1038.98M741.329 1354.01C801.003 1290.6 900.138 1275.75 882.517 1037.43M407.642 1087.05C411.365 1083.65 414.762 1079.54 417.961 1074.82M407.642 1087.05C412.345 1086.08 417.398 1085.75 422.777 1085.91M407.642 1087.05C411.303 1083.11 414.722 1079.02 417.961 1074.82M407.642 1087.05C412.716 1086.43 417.755 1086.07 422.777 1085.91M407.642 1087.05C515.895 994.087 515.565 930.403 717.283 901.881M407.642 1087.05C546.405 1053.79 596.653 1091.97 737.949 945.21M407.642 1087.05C529.838 1008.37 549.642 960.973 720.899 911.845M407.642 1087.05C542.999 1034.13 593.027 1047.32 733.175 937.314M407.642 1087.05L726.444 924.142M417.961 1074.82C458.876 1014.58 467.374 857.424 709.014 864.03M417.961 1074.82C471.143 1005.9 475.94 906.6 713.243 886.229M422.777 1085.91C495.262 1088.03 627.095 1178.93 763.817 978.497M422.777 1085.91C509.892 1083.06 591.463 1140.46 747.482 959.531M1155.56 1334.22C1152.24 1330.58 1148.23 1327.28 1143.65 1324.19M1155.56 1334.22C1154.58 1329.5 1154.26 1324.43 1154.43 1319.04M1155.56 1334.22C1151.72 1330.65 1147.74 1327.33 1143.65 1324.19M1155.56 1334.22C1154.94 1329.13 1154.58 1324.07 1154.43 1319.04M1155.56 1334.22C1062.6 1225.97 999.748 1230.72 971.226 1029.01M1155.56 1334.22C1122.3 1195.46 1162.77 1148.15 1016.01 1006.86M1155.56 1334.22C1076.88 1212.03 1030.6 1195.76 981.476 1024.51M1155.56 1334.22C1102.64 1198.87 1117.53 1152.08 1007.53 1011.93M1155.56 1334.22L994.318 1018.68M1143.65 1324.19C1083.7 1283.75 926.472 1280.21 933.088 1038.16M1143.65 1324.19C1074.75 1271.27 975.499 1271.22 955.097 1033.56M1154.43 1319.04C1156.76 1246.78 1248.48 1116.79 1048.12 980.118M1154.43 1319.04C1151.84 1232.09 1211.21 1151.84 1030.32 995.856" stroke="url(#paint1_radial_48_1351)" stroke-width="3" stroke-linecap="round" stroke-linejoin="round"/>
<mask id="path-5-inside-1_48_1351" fill="white">
<path d="M755.611 710.052C684.535 794.483 695.361 920.547 779.792 991.623C864.222 1062.7 990.286 1051.87 1061.36 967.443C1132.44 883.012 1121.61 756.949 1037.18 685.872C952.751 614.796 826.688 625.621 755.611 710.052Z"/>
<path d="M904.887 834.858C902.315 837.913 902.707 842.474 905.762 845.046C908.817 847.618 913.379 847.226 915.95 844.171C918.522 841.116 918.131 836.555 915.075 833.983C912.02 831.411 907.459 831.803 904.887 834.858Z"/>
</mask>
<path d="M906.588 836.92L906.068 838.327C895.854 834.557 889.891 829.202 887.911 822.601C885.939 816.028 888.073 808.73 892.851 801.421C902.406 786.809 923.19 771.11 947.934 758.615C972.721 746.098 1001.74 736.668 1027.96 734.759C1054.13 732.853 1077.9 738.432 1091.63 756.433L1090.44 757.342L1089.25 758.252C1076.43 741.444 1053.95 735.875 1028.17 737.751C1002.45 739.624 973.821 748.904 949.286 761.293C924.707 773.705 904.486 789.109 895.362 803.063C890.802 810.037 889.179 816.388 890.784 821.739C892.38 827.06 897.327 831.903 907.107 835.513L906.588 836.92ZM907.351 835.587L906.485 836.812C897.589 830.522 893.209 823.767 892.98 816.814C892.752 809.895 896.656 803.297 903.123 797.35C916.05 785.46 940.082 775.347 967.112 769.355C994.189 763.353 1024.55 761.425 1050.29 766.123C1075.99 770.812 1097.47 782.188 1106.07 803.134L1104.68 803.704L1103.3 804.274C1095.27 784.726 1075.05 773.689 1049.76 769.074C1024.5 764.467 994.56 766.343 967.761 772.284C940.915 778.235 917.501 788.201 905.153 799.558C898.983 805.233 895.791 811.05 895.978 816.716C896.164 822.348 899.71 828.347 908.217 834.362L907.351 835.587ZM908.434 834.497L907.28 835.456C900.319 827.083 897.826 819.461 899.396 812.746C900.959 806.06 906.434 800.791 914.205 796.834C929.739 788.922 955.526 785.675 983.14 787.183C1010.8 788.694 1040.58 794.99 1064.2 806.415C1087.77 817.821 1105.54 834.517 1108.43 856.97L1106.94 857.161L1105.45 857.353C1102.76 836.386 1086.1 820.345 1062.89 809.116C1039.72 797.907 1010.36 791.674 982.977 790.179C955.548 788.681 930.397 791.954 915.567 799.507C908.155 803.282 903.591 807.982 902.317 813.429C901.051 818.847 902.922 825.521 909.587 833.538L908.434 834.497ZM909.762 833.724L908.399 834.351C903.844 824.466 903.396 816.474 906.633 810.423C909.858 804.395 916.49 800.768 924.99 799.01C941.983 795.495 967.65 799.174 993.851 807.917C1020.1 816.675 1047.15 830.605 1066.94 847.858C1086.7 865.08 1099.5 885.874 1096.48 908.306L1094.99 908.106L1093.5 907.906C1096.32 886.952 1084.43 867.076 1064.97 850.119C1045.55 833.192 1018.88 819.432 992.901 810.763C966.875 802.078 941.816 798.593 925.598 801.948C917.493 803.624 911.898 806.941 909.279 811.838C906.671 816.711 906.759 823.625 911.124 833.096L909.762 833.724ZM911.244 833.32L909.766 833.574C907.923 822.838 909.596 814.968 914.341 809.896C919.064 804.848 926.477 802.955 935.24 803.335C952.756 804.095 976.857 813.972 1000.16 828.882C1023.51 843.819 1046.3 863.959 1061.15 885.51C1075.97 907.024 1083.09 930.268 1074.36 951.162L1072.98 950.584L1071.59 950.006C1079.74 930.503 1073.27 908.388 1058.68 887.212C1044.11 866.073 1021.65 846.193 998.547 831.409C975.399 816.6 951.839 807.058 935.11 806.332C926.75 805.97 920.395 807.816 916.532 811.946C912.69 816.052 910.96 822.797 912.722 833.066L911.244 833.32ZM912.78 833.314L911.286 833.177C912.284 822.335 915.914 815.197 921.782 811.594C927.623 808.008 935.227 808.209 943.523 810.964C960.112 816.475 980.657 832.571 999.133 853.321C1017.64 874.108 1034.26 899.776 1042.9 924.671C1051.51 949.521 1052.28 973.969 1038.44 991.89L1037.26 990.973L1036.07 990.057C1048.99 973.324 1048.55 950.127 1040.06 925.654C1031.59 901.226 1015.21 875.893 996.893 855.316C978.539 834.704 958.421 819.074 942.578 813.811C934.658 811.181 928.103 811.233 923.352 814.151C918.627 817.052 915.229 823.07 914.274 833.452L912.78 833.314ZM914.266 833.707L912.859 833.187C916.629 822.973 921.987 817.027 928.598 815.087C935.176 813.157 942.478 815.35 949.788 820.193C964.406 829.879 980.114 850.836 992.621 875.753C1005.15 900.714 1014.59 929.902 1016.51 956.251C1018.42 982.553 1012.85 1006.41 994.85 1020.15L993.941 1018.95L993.031 1017.76C1009.84 1004.94 1015.4 982.376 1013.52 956.469C1011.63 930.611 1002.34 901.81 989.94 877.099C977.515 852.345 962.097 831.948 948.131 822.694C941.148 818.068 934.793 816.396 929.443 817.966C924.125 819.526 919.283 824.446 915.673 834.226L914.266 833.707ZM915.599 834.47L914.374 833.604C920.658 824.715 927.358 820.368 934.221 820.233C941.051 820.099 947.492 824.15 953.246 830.763C964.755 843.989 974.366 868.412 979.861 895.832C985.366 923.299 986.795 954.049 981.726 980.082C976.666 1006.07 965.042 1027.73 944.1 1036.33L943.53 1034.94L942.96 1033.56C962.512 1025.53 973.796 1005.11 978.781 979.509C983.757 953.957 982.37 923.615 976.92 896.421C971.46 869.179 961.98 845.37 950.983 832.732C945.484 826.413 939.82 823.124 934.28 823.233C928.775 823.341 922.843 826.821 916.824 835.336L915.599 834.47ZM916.69 835.552L915.731 834.399C924.099 827.442 931.673 824.984 938.297 826.656C944.887 828.32 949.99 833.94 953.753 841.851C961.282 857.678 964.029 883.852 962.026 911.856C960.019 939.908 953.227 970.075 941.432 993.98C929.66 1017.84 912.719 1035.8 890.265 1038.69L890.074 1037.2L889.882 1035.71C910.849 1033.02 927.138 1016.17 938.741 992.652C950.321 969.184 957.047 939.418 959.034 911.641C961.024 883.816 958.24 858.266 951.044 843.14C947.446 835.574 942.889 830.91 937.562 829.565C932.269 828.228 925.67 830.037 917.649 836.706L916.69 835.552ZM917.463 836.88L916.836 835.518C926.729 830.959 934.731 830.584 940.784 833.966C946.8 837.327 950.414 844.139 952.165 852.848C955.668 870.269 951.982 896.514 943.229 923.299C934.461 950.129 920.523 977.765 903.266 997.996C886.042 1018.19 865.24 1031.29 842.793 1028.27L842.993 1026.78L843.193 1025.3C864.132 1028.12 884.011 1015.94 900.983 996.049C917.922 976.192 931.696 948.933 940.377 922.367C949.074 895.756 952.575 870.105 949.224 853.439C947.548 845.105 944.225 839.325 939.321 836.585C934.454 833.866 927.554 833.882 918.091 838.242L917.463 836.88ZM917.867 838.363L917.613 836.884C928.351 835.041 936.177 836.763 941.144 841.617C946.079 846.441 947.801 853.983 947.233 862.88C946.095 880.681 935.727 905.166 920.323 928.863C904.894 952.599 884.262 975.776 862.344 990.918C840.47 1006.03 816.976 1013.35 796.074 1004.62L796.652 1003.24L797.23 1001.85C816.724 1010 839.082 1003.34 860.639 988.449C882.152 973.587 902.529 950.732 917.808 927.228C933.111 903.685 943.15 879.723 944.239 862.689C944.783 854.17 943.074 847.698 939.047 843.763C935.054 839.859 928.388 838.078 918.12 839.841L917.867 838.363ZM917.873 839.899L918.01 838.406C928.851 839.404 935.93 843.057 939.393 848.989C942.835 854.883 942.416 862.543 939.424 870.89C933.436 887.595 916.714 908.302 895.336 926.947C873.921 945.624 847.627 962.412 822.264 971.171C796.954 979.911 772.186 980.772 754.26 966.933L755.177 965.746L756.093 964.558C772.82 977.471 796.328 976.954 821.285 968.335C846.19 959.734 872.156 943.183 893.364 924.686C914.608 906.159 930.87 885.862 936.6 869.878C939.467 861.881 939.59 855.275 936.803 850.501C934.037 845.765 928.117 842.349 917.735 841.393L917.873 839.899ZM917.48 841.384L918 839.977C928.224 843.751 934.123 849.175 935.96 855.897C937.783 862.57 935.451 870.002 930.451 877.469C920.446 892.412 899.067 908.565 873.719 921.518C848.33 934.491 818.714 944.38 792.043 946.635C765.427 948.885 741.333 943.55 727.593 925.535L728.786 924.625L729.978 923.716C742.787 940.509 765.552 945.864 791.79 943.646C817.974 941.432 847.209 931.695 872.354 918.846C897.539 905.977 918.377 890.111 927.958 875.8C932.751 868.641 934.554 862.138 933.066 856.687C931.59 851.286 926.732 846.398 916.961 842.791L917.48 841.384ZM916.717 842.718L917.583 841.493C926.484 847.785 930.776 854.565 930.809 861.556C930.842 868.494 926.668 875.101 919.904 881.061C906.371 892.986 881.537 903.163 853.695 909.221C825.809 915.289 794.638 917.284 768.288 912.639C741.992 908.005 720.096 896.67 711.485 875.71L712.873 875.141L714.26 874.571C722.285 894.105 742.888 905.116 768.809 909.685C794.676 914.244 825.439 912.299 853.057 906.29C880.719 900.27 904.958 890.232 917.921 878.81C924.406 873.096 927.836 867.246 927.809 861.57C927.783 855.946 924.354 849.953 915.851 843.942L916.717 842.718ZM915.635 843.808L916.788 842.849C923.761 851.235 926.141 858.928 924.353 865.744C922.58 872.506 916.831 877.893 908.737 882.003C892.541 890.225 865.868 893.903 837.353 892.822C808.794 891.739 778.116 885.872 753.824 874.771C729.582 863.692 711.332 847.214 708.439 824.733L709.927 824.542L711.415 824.351C714.109 845.29 731.179 861.124 755.071 872.042C778.913 882.938 809.183 888.751 837.467 889.824C865.795 890.898 891.859 887.207 907.378 879.328C915.142 875.386 919.994 870.539 921.451 864.983C922.894 859.479 921.134 852.769 914.481 844.767L915.635 843.808ZM914.307 844.581L915.669 843.953C920.214 853.816 920.66 861.645 917.319 867.375C913.993 873.079 907.225 876.16 898.648 877.297C881.47 879.572 855.56 874.267 829.111 863.91C802.615 853.534 775.318 837.989 755.348 819.531C735.421 801.113 722.507 779.517 725.526 757.095L727.012 757.295L728.499 757.495C725.676 778.459 737.713 799.146 757.384 817.328C777.011 835.469 803.958 850.839 830.205 861.116C856.5 871.413 881.834 876.498 898.254 874.323C906.475 873.233 912.095 870.379 914.727 865.864C917.344 861.375 917.319 854.703 912.944 845.209L914.307 844.581ZM912.825 844.985L914.303 844.731C916.138 855.417 914.612 863.039 909.994 867.602C905.388 872.151 898.177 873.191 889.776 871.865C872.944 869.21 849.761 856.843 827.364 839.464C804.925 822.053 783.054 799.442 768.897 776.049C754.772 752.707 748.134 728.248 756.848 707.384L758.232 707.962L759.616 708.54C751.459 728.072 757.513 751.442 771.464 774.495C785.383 797.497 806.974 819.846 829.203 837.094C851.475 854.376 874.169 866.366 890.243 868.902C898.296 870.172 904.294 869.015 907.885 865.468C911.463 861.933 913.118 855.558 911.347 845.238L912.825 844.985ZM911.289 844.991L912.783 845.128C911.787 855.946 908.246 862.964 902.473 866.292C896.726 869.604 889.298 868.948 881.263 865.705C865.174 859.213 845.292 841.83 827.468 819.801C809.613 797.732 793.649 770.785 785.511 744.938C777.39 719.146 776.955 694.067 790.781 676.157L791.968 677.073L793.156 677.99C780.231 694.733 780.358 718.582 788.372 744.037C796.37 769.436 812.115 796.055 829.8 817.914C847.518 839.812 867.009 856.719 882.386 862.923C890.083 866.029 896.41 866.323 900.975 863.692C905.512 861.077 908.837 855.259 909.795 844.853L911.289 844.991ZM909.803 844.599L911.211 845.118C907.448 855.311 902.204 861.186 895.757 862.938C889.338 864.682 882.312 862.176 875.361 857.017C861.446 846.688 846.669 824.89 835.084 799.138C823.479 773.339 814.964 743.318 813.74 716.349C812.519 689.436 818.555 665.169 836.546 651.447L837.456 652.64L838.365 653.832C821.547 666.659 815.532 689.659 816.737 716.213C817.939 742.71 826.326 772.356 837.82 797.907C849.335 823.505 863.853 844.739 877.149 854.608C883.803 859.547 889.861 861.432 894.97 860.043C900.051 858.662 904.778 853.881 908.396 844.079L909.803 844.599ZM908.47 843.835L909.695 844.701C903.413 853.587 896.734 857.911 889.906 857.985C883.114 858.058 876.74 853.915 871.069 847.209C859.723 833.792 850.323 809.118 845.037 781.446C839.742 753.727 838.523 722.725 843.749 696.505C848.965 670.338 860.692 648.548 881.634 639.945L882.204 641.332L882.774 642.72C863.221 650.752 851.833 671.294 846.691 697.092C841.56 722.837 842.741 753.434 847.984 780.883C853.237 808.38 862.513 832.444 873.36 845.272C878.786 851.688 884.387 855.044 889.873 854.985C895.322 854.926 901.224 851.487 907.245 842.969L908.47 843.835ZM907.379 842.753L908.338 843.906C899.964 850.869 892.341 853.315 885.634 851.641C878.966 849.977 873.731 844.364 869.809 836.444C861.965 820.601 858.799 794.402 860.387 766.371C861.978 738.293 868.354 708.097 879.838 684.17C891.299 660.289 908.033 642.304 930.494 639.414L930.686 640.901L930.877 642.389C909.918 645.086 893.835 661.939 882.542 685.468C871.272 708.952 864.957 738.74 863.382 766.541C861.804 794.389 864.997 819.964 872.497 835.113C876.248 842.688 880.932 847.375 886.361 848.731C891.752 850.076 898.406 848.262 906.42 841.599L907.379 842.753ZM906.606 841.425L907.234 842.787C897.339 847.347 889.315 847.734 883.218 844.391C877.156 841.066 873.465 834.303 871.626 825.64C867.95 808.317 871.409 782.203 879.937 755.55C888.479 728.852 902.192 701.347 919.282 681.214C936.34 661.12 957.029 648.082 979.475 651.104L979.275 652.591L979.075 654.077C958.135 651.258 938.369 663.365 921.569 683.156C904.8 702.91 891.251 730.033 882.794 756.464C874.323 782.939 871.046 808.454 874.561 825.017C876.318 833.298 879.705 839.043 884.661 841.76C889.582 844.459 896.517 844.423 905.979 840.063L906.606 841.425ZM906.203 839.943L906.457 841.421C906.341 841.441 906.225 841.461 906.11 841.48L905.865 840L905.62 838.52C905.729 838.502 905.839 838.483 905.95 838.464L906.203 839.943ZM905.865 840L906.11 841.48C905.579 841.568 905.057 841.647 904.541 841.717L904.338 840.231L904.136 838.744C904.622 838.678 905.117 838.603 905.62 838.52L905.865 840ZM904.338 840.231L904.541 841.717C903.597 841.846 902.676 841.946 901.781 842.017L901.662 840.521L901.543 839.026C902.38 838.96 903.244 838.866 904.136 838.744L904.338 840.231ZM901.662 840.521L901.781 842.017C900.077 842.152 898.459 842.184 896.928 842.114L896.996 840.616L897.064 839.117C898.459 839.181 899.951 839.153 901.543 839.026L901.662 840.521ZM896.996 840.616L896.928 842.114C894.615 842.009 892.494 841.673 890.562 841.113L890.98 839.672L891.398 838.231C893.073 838.718 894.957 839.022 897.064 839.117L896.996 840.616ZM890.98 839.672L890.562 841.113C888.436 840.496 886.545 839.608 884.889 838.464L885.741 837.23L886.594 835.996C887.964 836.943 889.558 837.697 891.398 838.231L890.98 839.672ZM885.741 837.23L884.889 838.464C883.287 837.358 881.921 836.022 880.781 834.483L881.986 833.59L883.191 832.697C884.14 833.978 885.27 835.081 886.594 835.996L885.741 837.23ZM881.986 833.59L880.781 834.483C879.715 833.045 878.854 831.439 878.182 829.69L879.583 829.152L880.983 828.614C881.567 830.135 882.303 831.498 883.191 832.697L881.986 833.59ZM879.583 829.152L878.182 829.69C877.559 828.067 877.098 826.321 876.787 824.47L878.266 824.222L879.745 823.973C880.027 825.651 880.44 827.201 880.983 828.614L879.583 829.152ZM878.266 824.222L876.787 824.47C876.459 822.521 876.297 820.451 876.287 818.278L877.787 818.271L879.287 818.265C879.296 820.298 879.448 822.205 879.745 823.973L878.266 824.222ZM877.787 818.271L876.287 818.278C876.278 816.195 876.408 814.014 876.67 811.749L878.16 811.921L879.65 812.093C879.401 814.254 879.278 816.316 879.287 818.265L877.787 818.271ZM878.16 811.921L876.67 811.749C876.925 809.54 877.305 807.248 877.801 804.887L879.269 805.195L880.737 805.504C880.257 807.785 879.893 809.985 879.65 812.093L878.16 811.921ZM879.269 805.195L877.801 804.887C878.302 802.501 878.923 800.042 879.656 797.523L881.096 797.942L882.537 798.361C881.823 800.814 881.221 803.199 880.737 805.504L879.269 805.195ZM881.096 797.942L879.656 797.523C880.498 794.628 881.488 791.653 882.616 788.616L884.023 789.138L885.429 789.66C884.324 792.636 883.357 795.542 882.537 798.361L881.096 797.942ZM884.023 789.138L882.616 788.616C883.72 785.644 884.956 782.611 886.314 779.536L887.687 780.142L889.059 780.748C887.723 783.772 886.51 786.749 885.429 789.66L884.023 789.138ZM887.687 780.142L886.314 779.536C888.008 775.701 889.893 771.799 891.95 767.865L893.279 768.56L894.608 769.255C892.58 773.135 890.724 776.977 889.059 780.748L887.687 780.142ZM893.279 768.56L891.95 767.865C894.328 763.316 896.937 758.722 899.749 754.137L901.028 754.921L902.306 755.706C899.529 760.234 896.954 764.769 894.608 769.255L893.279 768.56ZM901.028 754.921L899.749 754.137C903.442 748.116 907.485 742.109 911.815 736.239L913.022 737.129L914.229 738.019C909.95 743.821 905.954 749.758 902.306 755.706L901.028 754.921ZM913.022 737.129L911.815 736.239C917.115 729.052 922.847 722.068 928.893 715.511L929.996 716.528L931.098 717.545C925.13 724.017 919.468 730.916 914.229 738.019L913.022 737.129ZM929.996 716.528L928.893 715.511C936.38 707.391 944.356 699.92 952.6 693.529L953.519 694.715L954.438 695.901C946.344 702.174 938.49 709.528 931.098 717.545L929.996 716.528ZM953.519 694.715L952.6 693.529C962.507 685.849 972.828 679.711 983.176 675.896L983.694 677.304L984.213 678.711C974.225 682.393 964.172 688.355 954.438 695.901L953.519 694.715ZM983.694 677.304L983.176 675.896C993.161 672.215 1003.21 670.687 1012.93 672.063L1012.72 673.549L1012.51 675.034C1003.38 673.742 993.846 675.16 984.213 678.711L983.694 677.304ZM1012.72 673.549L1012.93 672.063C1016.97 672.636 1020.96 673.71 1024.85 675.334L1024.27 676.718L1023.69 678.102C1020.04 676.578 1016.31 675.571 1012.51 675.034L1012.72 673.549ZM906.197 838.406L906.058 839.9L905.893 839.884L906.032 838.391L906.171 836.897L906.336 836.913L906.197 838.406ZM906.032 838.391L905.89 839.884C905.514 839.848 905.143 839.809 904.776 839.767L904.947 838.277L905.118 836.787C905.465 836.827 905.817 836.864 906.174 836.897L906.032 838.391ZM904.947 838.277L904.776 839.767C904.05 839.684 903.341 839.588 902.651 839.48L902.883 837.998L903.114 836.516C903.763 836.618 904.431 836.708 905.118 836.787L904.947 838.277ZM902.883 837.998L902.651 839.48C901.092 839.237 899.624 838.93 898.244 838.563L898.63 837.113L899.016 835.664C900.285 836.002 901.65 836.287 903.114 836.516L902.883 837.998ZM898.63 837.113L898.244 838.563C895.87 837.931 893.753 837.117 891.89 836.127L892.594 834.803L893.298 833.478C894.932 834.346 896.831 835.082 899.016 835.664L898.63 837.113ZM892.594 834.803L891.89 836.127C889.789 835.011 888.011 833.673 886.555 832.125L887.648 831.097L888.74 830.069C889.95 831.355 891.457 832.5 893.298 833.478L892.594 834.803ZM887.648 831.097L886.555 832.125C885.18 830.664 884.104 829.029 883.314 827.245L884.686 826.637L886.057 826.03C886.711 827.507 887.6 828.857 888.74 830.069L887.648 831.097ZM884.686 826.637L883.314 827.245C882.59 825.61 882.111 823.862 881.856 822.021L883.342 821.815L884.827 821.609C885.048 823.198 885.456 824.673 886.057 826.03L884.686 826.637ZM883.342 821.815L881.856 822.021C881.603 820.198 881.57 818.286 881.736 816.302L883.23 816.427L884.725 816.551C884.576 818.345 884.609 820.033 884.827 821.609L883.342 821.815ZM883.23 816.427L881.736 816.302C881.894 814.407 882.233 812.442 882.738 810.422L884.193 810.785L885.648 811.149C885.177 813.034 884.868 814.838 884.725 816.551L883.23 816.427ZM884.193 810.785L882.738 810.422C883.223 808.48 883.861 806.482 884.641 804.44L886.042 804.975L887.444 805.51C886.701 807.454 886.101 809.337 885.648 811.149L884.193 810.785ZM886.042 804.975L884.641 804.44C885.406 802.436 886.308 800.386 887.337 798.299L888.682 798.962L890.027 799.626C889.035 801.638 888.172 803.602 887.444 805.51L886.042 804.975ZM888.682 798.962L887.337 798.299C888.477 795.986 889.774 793.626 891.214 791.232L892.5 792.006L893.785 792.779C892.383 795.109 891.127 797.395 890.027 799.626L888.682 798.962ZM892.5 792.006L891.214 791.233C892.581 788.962 894.077 786.659 895.692 784.336L896.924 785.192L898.155 786.048C896.575 788.322 895.114 790.569 893.785 792.779L892.5 792.006ZM896.924 785.192L895.692 784.336C897.638 781.538 899.757 778.708 902.031 775.866L903.202 776.803L904.374 777.741C902.138 780.534 900.06 783.31 898.155 786.048L896.924 785.192ZM903.202 776.803L902.031 775.866C904.567 772.697 907.297 769.512 910.196 766.337L911.304 767.348L912.412 768.36C909.554 771.49 906.867 774.625 904.374 777.741L903.202 776.803ZM911.304 767.348L910.196 766.337C913.879 762.303 917.836 758.285 922.014 754.338L923.045 755.428L924.075 756.518C919.947 760.418 916.042 764.383 912.412 768.36L911.304 767.348ZM923.045 755.428L922.014 754.338C927.01 749.619 932.324 745 937.871 740.574L938.807 741.746L939.742 742.919C934.26 747.293 929.009 751.858 924.075 756.518L923.045 755.428ZM938.807 741.746L937.871 740.574C944.792 735.052 952.077 729.829 959.558 725.088L960.361 726.355L961.164 727.622C953.779 732.302 946.582 737.461 939.742 742.919L938.807 741.746ZM960.361 726.355L959.558 725.088C969.184 718.99 979.143 713.684 989.076 709.569L989.651 710.955L990.225 712.34C980.474 716.38 970.667 721.601 961.164 727.622L960.361 726.355ZM989.651 710.955L989.076 709.569C1000.22 704.952 1011.36 701.822 1021.98 700.765L1022.13 702.258L1022.28 703.751C1012.02 704.771 1001.17 707.805 990.225 712.34L989.651 710.955ZM1022.13 702.258L1021.98 700.765C1032.66 699.703 1042.84 700.734 1051.97 704.492L1051.4 705.879L1050.83 707.266C1042.26 703.737 1032.59 702.725 1022.28 703.751L1022.13 702.258ZM1051.4 705.879L1051.97 704.492C1055.94 706.127 1059.71 708.277 1063.22 710.986L1062.3 712.173L1061.38 713.361C1058.09 710.819 1054.56 708.802 1050.83 707.266L1051.4 705.879ZM908.041 838.759L909.49 838.368C911.768 846.828 915.249 852.003 919.381 854.697C923.475 857.367 928.479 857.774 934.224 856.116C945.838 852.765 959.876 841.129 973.331 824.647C986.735 808.229 999.373 787.232 1008.26 765.522C1017.14 743.793 1022.22 721.475 1020.64 702.382L1022.13 702.258L1023.63 702.134C1025.26 721.878 1020.02 744.695 1011.03 766.658C1002.04 788.64 989.248 809.894 975.655 826.544C962.114 843.131 947.588 855.382 935.056 858.998C928.728 860.824 922.764 860.485 917.742 857.21C912.758 853.961 908.976 847.996 906.593 839.149L908.041 838.759ZM1022.13 702.258L1020.64 702.382C1019.76 691.822 1016.86 682.298 1011.48 674.392L1012.72 673.549L1013.96 672.705C1019.69 681.132 1022.72 691.184 1023.63 702.134L1022.13 702.258ZM1012.72 673.549L1011.48 674.392C1009.51 671.496 1007.21 668.811 1004.54 666.368L1005.56 665.262L1006.57 664.156C1009.41 666.759 1011.86 669.62 1013.96 672.705L1012.72 673.549ZM907.607 838.653L909.107 838.651C909.12 848.6 911.718 854.837 915.833 858.322C919.949 861.807 925.947 862.847 933.46 861.572C948.53 859.015 968.639 847.301 988.138 830.478C1007.59 813.695 1026.23 792.006 1038.4 769.782C1050.6 747.51 1056.16 724.983 1049.98 706.352L1051.4 705.879L1052.82 705.406C1059.4 725.215 1053.38 748.677 1041.03 771.224C1028.66 793.818 1009.77 815.777 990.098 832.75C970.471 849.683 949.852 861.834 933.962 864.53C925.995 865.882 918.954 864.895 913.895 860.611C908.835 856.327 906.121 849.052 906.107 838.655L907.607 838.653ZM1051.4 705.879L1049.98 706.352C1048.8 702.808 1047.2 699.399 1045.13 696.15L1046.39 695.345L1047.66 694.539C1049.86 698 1051.57 701.633 1052.82 705.406L1051.4 705.879ZM907.216 838.44L908.665 838.826C905.982 848.892 907.103 855.776 910.571 860.229C914.06 864.708 920.243 867.142 928.623 867.562C945.393 868.403 969.778 861.098 994.226 848.511C1018.63 835.947 1042.85 818.247 1059.31 798.564C1075.8 778.846 1084.27 757.442 1077.92 737.286L1079.35 736.835L1080.78 736.384C1087.58 757.983 1078.36 780.454 1061.61 800.488C1044.83 820.556 1020.26 838.484 995.599 851.179C970.982 863.852 946.03 871.438 928.473 870.558C919.69 870.118 912.463 867.539 908.204 862.072C903.925 856.578 902.961 848.581 905.766 838.053L907.216 838.44ZM906.893 838.132L908.193 838.88C907.839 839.495 907.506 840.1 907.193 840.697L905.865 840L904.536 839.303C904.868 838.671 905.22 838.031 905.593 837.384L906.893 838.132ZM905.865 840L907.193 840.697C902.643 849.369 902.413 856.001 904.961 860.967C907.541 865.998 913.191 869.77 921.398 872.176C937.803 876.987 963.328 876.009 990.101 870.054C1016.83 864.108 1044.56 853.257 1065.32 838.56C1086.12 823.838 1099.64 805.488 1098.74 784.558L1100.24 784.493L1101.73 784.428C1102.71 806.861 1088.19 826.047 1067.06 841.009C1045.88 855.996 1017.76 866.976 990.752 872.982C963.785 878.98 937.673 880.075 920.554 875.055C911.999 872.547 905.415 868.427 902.291 862.337C899.135 856.182 899.73 848.463 904.536 839.303L905.865 840ZM906.66 837.751L907.722 838.81C907.515 839.018 907.311 839.226 907.111 839.433L906.032 838.391L904.953 837.349C905.165 837.13 905.379 836.911 905.598 836.692L906.66 837.751ZM906.032 838.391L907.111 839.433C906.531 840.033 905.984 840.628 905.467 841.218L904.338 840.231L903.209 839.243C903.76 838.614 904.341 837.983 904.953 837.349L906.032 838.391ZM904.338 840.231L905.467 841.218C899.264 848.309 897.633 854.585 899.048 860.027C900.486 865.558 905.178 870.681 912.628 875.152C927.514 884.086 952.484 889.854 979.825 891.176C1007.13 892.495 1036.55 889.367 1060.25 880.715C1083.99 872.05 1101.65 857.988 1106.16 837.65L1107.63 837.975L1109.09 838.3C1104.25 860.11 1085.41 874.723 1061.28 883.534C1037.1 892.358 1007.26 895.505 979.68 894.172C952.133 892.841 926.587 887.028 911.084 877.724C903.339 873.076 897.868 867.415 896.144 860.782C894.397 854.06 896.604 846.793 903.209 839.243L904.338 840.231ZM906.534 837.323L907.286 838.621C906.754 838.929 906.24 839.238 905.741 839.549L904.947 838.277L904.152 837.005C904.68 836.676 905.223 836.349 905.783 836.025L906.534 837.323ZM904.947 838.277L905.741 839.549C904.594 840.266 903.536 840.99 902.563 841.721L901.662 840.521L900.761 839.322C901.808 838.536 902.938 837.763 904.152 837.005L904.947 838.277ZM901.662 840.521L902.563 841.721C895.611 846.942 893.084 852.424 893.556 857.841C894.04 863.383 897.688 869.294 904.082 875.212C916.847 887.026 939.771 898.142 965.892 905.588C991.984 913.026 1021.04 916.738 1045.97 913.913C1070.94 911.083 1091.41 901.751 1100.93 883.462L1102.26 884.155L1103.59 884.848C1093.39 904.437 1071.69 914.017 1046.31 916.894C1020.89 919.774 991.423 915.985 965.07 908.473C938.747 900.97 915.306 889.688 902.044 877.413C895.425 871.287 891.146 864.73 890.568 858.102C889.979 851.349 893.258 844.957 900.761 839.322L901.662 840.521ZM906.524 836.877L906.914 838.325C905.666 838.662 904.488 839.025 903.379 839.414L902.883 837.998L902.387 836.583C903.571 836.168 904.819 835.783 906.134 835.429L906.524 836.877ZM902.883 837.998L903.379 839.414C901.245 840.162 899.368 841.002 897.731 841.923L896.996 840.616L896.261 839.308C898.07 838.291 900.111 837.381 902.387 836.583L902.883 837.998ZM896.996 840.616L897.731 841.923C891.268 845.558 888.477 850.455 888.369 856.153C888.258 861.992 890.962 868.909 896.087 876.412C906.318 891.391 925.726 908.019 948.719 921.831C971.695 935.634 998.081 946.523 1022.16 950.149C1046.28 953.779 1067.74 950.09 1081.37 935.226L1082.48 936.24L1083.58 937.253C1068.97 953.189 1046.26 956.81 1021.72 953.115C997.138 949.415 970.378 938.343 947.174 924.403C923.986 910.473 904.179 893.577 893.61 878.104C888.335 870.381 885.242 862.84 885.37 856.096C885.5 849.211 888.984 843.4 896.261 839.308L896.996 840.616ZM906.629 836.443L906.631 837.943C903.756 837.947 901.185 838.17 898.9 838.589L898.63 837.113L898.36 835.638C900.848 835.182 903.601 834.947 906.627 834.943L906.629 836.443ZM898.63 837.113L898.9 838.589C896.059 839.109 893.671 839.928 891.69 840.993L890.98 839.672L890.27 838.351C892.571 837.113 895.266 836.204 898.36 835.638L898.63 837.113ZM890.98 839.672L891.69 840.993C886.473 843.798 883.84 848.443 883.381 854.578C882.916 860.797 884.702 868.515 888.423 877.151C895.855 894.4 910.775 914.788 929.308 933.12C947.836 951.446 969.859 967.602 991.411 976.481C1012.99 985.37 1033.8 986.861 1050.24 976.395L1051.04 977.661L1051.85 978.926C1034.23 990.146 1012.26 988.316 990.269 979.255C968.25 970.184 945.909 953.76 927.198 935.253C908.493 916.75 893.3 896.052 885.668 878.338C881.857 869.492 879.873 861.258 880.389 854.354C880.912 847.366 884.011 841.716 890.27 838.351L890.98 839.672ZM906.843 836.052L906.457 837.501C901.023 836.053 896.509 835.724 892.82 836.286L892.594 834.803L892.368 833.32C896.579 832.679 901.524 833.082 907.229 834.602L906.843 836.052ZM892.594 834.803L892.82 836.286C890.378 836.657 888.295 837.418 886.529 838.507L885.741 837.23L884.954 835.953C887.096 834.633 889.568 833.746 892.368 833.32L892.594 834.803ZM885.741 837.23L886.529 838.507C882.194 841.18 879.501 846.016 878.404 852.724C877.306 859.438 877.843 867.855 879.825 877.355C883.786 896.342 893.443 919.298 906.637 940.833C919.832 962.369 936.495 982.368 954.392 995.516C972.304 1008.67 991.22 1014.82 1009.1 1009.18L1009.55 1010.61L1010 1012.05C990.829 1018.09 970.907 1011.37 952.616 997.934C934.31 984.485 917.404 964.148 904.079 942.4C890.753 920.65 880.937 897.372 876.888 877.967C874.865 868.271 874.263 859.452 875.443 852.24C876.624 845.021 879.625 839.24 884.954 835.953L885.741 837.23ZM907.151 835.729L906.403 837.029C898.829 832.669 892.747 831.504 887.972 832.562L887.648 831.097L887.323 829.633C893.109 828.352 899.976 829.868 907.899 834.429L907.151 835.729ZM887.648 831.097L887.972 832.562C886.1 832.976 884.395 833.738 882.844 834.82L881.986 833.59L881.127 832.36C882.991 831.059 885.058 830.134 887.323 829.633L887.648 831.097ZM881.986 833.59L882.844 834.82C878.8 837.643 875.707 842.724 873.64 849.721C871.58 856.696 870.591 865.41 870.626 875.257C870.696 894.948 874.862 918.933 882.465 942.08C890.071 965.232 901.08 987.433 914.762 1003.61C928.452 1019.8 944.65 1029.78 962.678 1029L962.743 1030.5L962.808 1032C943.483 1032.83 926.473 1022.11 912.472 1005.55C898.463 988.983 887.297 966.399 879.615 943.016C871.932 919.627 867.697 895.327 867.626 875.268C867.59 865.241 868.594 856.215 870.763 848.871C872.926 841.548 876.299 835.73 881.127 832.36L881.986 833.59ZM907.532 835.496L906.473 836.558C898.218 828.326 891.091 826.265 885.12 828.073L884.686 826.637L884.251 825.202C891.725 822.939 899.952 825.817 908.591 834.434L907.532 835.496ZM884.686 826.637L885.12 828.073C883.518 828.558 881.956 829.331 880.437 830.385L879.583 829.152L878.728 827.92C880.474 826.708 882.317 825.787 884.251 825.202L884.686 826.637ZM879.583 829.152L880.437 830.385C876.17 833.344 872.289 838.484 868.938 845.416C865.597 852.329 862.838 860.911 860.752 870.612C856.58 890.013 855.133 913.734 857.012 937.172C858.891 960.619 864.089 983.677 873.131 1001.8C882.175 1019.92 894.958 1032.92 911.941 1036.69L911.616 1038.15L911.291 1039.62C893.09 1035.58 879.712 1021.71 870.447 1003.14C861.179 984.563 855.92 961.097 854.021 937.412C852.122 913.718 853.579 889.701 857.819 869.981C859.939 860.122 862.764 851.297 866.237 844.111C869.701 836.943 873.866 831.292 878.728 827.92L879.583 829.152ZM907.96 835.37L906.662 836.122C903.049 829.883 899.246 826.033 895.441 824.057C891.682 822.106 887.799 821.917 883.814 823.239L883.342 821.815L882.869 820.392C887.562 818.835 892.29 819.041 896.823 821.395C901.309 823.724 905.477 828.089 909.258 834.618L907.96 835.37ZM883.342 821.815L883.814 823.239C882.248 823.758 880.658 824.514 879.05 825.5L878.266 824.222L877.482 822.943C879.257 821.854 881.056 820.993 882.869 820.392L883.342 821.815ZM878.266 824.222L879.05 825.5C869.492 831.362 859.78 845.054 851.57 863.128C843.394 881.129 836.824 903.219 833.406 925.555C829.987 947.901 829.737 970.398 834.121 989.245C838.506 1008.09 847.473 1023.1 862.344 1030.85L861.651 1032.18L860.958 1033.51C845.031 1025.21 835.697 1009.26 831.199 989.924C826.7 970.587 826.986 947.68 830.441 925.101C833.897 902.511 840.541 880.155 848.839 861.887C857.103 843.693 867.124 829.295 877.482 822.943L878.266 824.222ZM908.406 835.359L906.958 835.749C904.779 827.663 901.489 822.607 897.579 819.871C893.709 817.164 888.999 816.567 883.585 817.884L883.23 816.427L882.876 814.969C888.908 813.501 894.556 814.095 899.298 817.413C904 820.703 907.575 826.506 909.854 834.969L908.406 835.359ZM883.23 816.427L883.585 817.884C881.91 818.292 880.171 818.883 878.377 819.651L877.787 818.271L877.197 816.892C879.122 816.068 881.019 815.421 882.876 814.969L883.23 816.427ZM877.787 818.271L878.377 819.651C867.204 824.432 854.27 835.902 841.891 851.32C829.543 866.701 817.867 885.86 809.161 905.819C800.451 925.788 794.752 946.474 794.276 964.921C793.8 983.362 798.54 999.395 810.501 1010.36L809.488 1011.47L808.474 1012.57C795.656 1000.82 790.788 983.807 791.277 964.843C791.767 945.884 797.607 924.806 806.411 904.619C815.221 884.422 827.034 865.034 839.552 849.442C852.039 833.889 865.348 821.963 877.197 816.892L877.787 818.271ZM908.84 835.465L907.34 835.467C907.327 825.943 904.9 819.821 901.011 816.262C897.13 812.71 891.48 811.424 884.371 812.274L884.193 810.785L884.015 809.296C891.617 808.386 898.277 809.693 903.036 814.049C907.786 818.396 910.327 825.494 910.34 835.463L908.84 835.465ZM884.193 810.785L884.371 812.274C882.51 812.497 880.558 812.866 878.525 813.376L878.16 811.921L877.795 810.466C879.935 809.93 882.012 809.535 884.015 809.296L884.193 810.785ZM878.16 811.921L878.525 813.376C865.932 816.533 850.53 825.017 835.005 836.928C819.505 848.821 803.988 864.049 791.158 880.573C778.321 897.106 768.228 914.866 763.492 931.816C758.759 948.758 759.411 964.746 767.824 977.96L766.559 978.765L765.293 979.571C756.277 965.408 755.726 948.466 760.603 931.009C765.477 913.561 775.806 895.453 788.789 878.733C801.779 862.003 817.479 846.594 833.179 834.548C848.856 822.52 864.637 813.765 877.795 810.466L878.16 811.921ZM909.232 835.679L907.783 835.292C910.546 824.925 909.25 817.932 905.48 813.483C901.67 808.987 894.985 806.663 886.011 806.475L886.042 804.975L886.074 803.475C895.41 803.672 903.147 806.089 907.769 811.544C912.431 817.046 913.574 825.212 910.682 836.065L909.232 835.679ZM886.042 804.975L886.011 806.475C883.912 806.43 881.701 806.504 879.39 806.69L879.269 805.195L879.148 803.7C881.549 803.506 883.862 803.429 886.074 803.475L886.042 804.975ZM879.269 805.195L879.39 806.69C852.104 808.895 811.744 826.837 780.517 851.707C764.922 864.126 751.705 878.197 743.551 892.777C735.403 907.346 732.367 922.311 736.888 936.666L735.457 937.116L734.027 937.567C729.183 922.188 732.521 906.355 740.933 891.313C749.339 876.282 762.867 861.928 778.648 849.36C810.172 824.254 851.083 805.968 879.148 803.7L879.269 805.195ZM909.556 835.987L908.255 835.239C914.228 824.862 914.255 817.25 910.692 811.813C907.036 806.235 899.279 802.397 888.416 800.438L888.682 798.962L888.948 797.486C900.06 799.489 908.856 803.538 913.201 810.169C917.639 816.941 917.115 825.86 910.856 836.735L909.556 835.987ZM888.682 798.962L888.416 800.438C886.058 800.013 883.566 799.679 880.957 799.435L881.096 797.942L881.236 796.448C883.921 796.699 886.498 797.044 888.948 797.486L888.682 798.962ZM881.096 797.942L880.957 799.435C852.631 796.786 810.98 804.784 776.734 820.884C759.624 828.928 744.46 838.951 733.753 850.584C723.056 862.206 716.874 875.356 717.498 889.737L715.999 889.802L714.501 889.867C713.833 874.467 720.481 860.575 731.546 848.552C742.601 836.54 758.132 826.315 775.458 818.169C810.086 801.89 852.274 793.739 881.236 796.448L881.096 797.942ZM909.788 836.368L908.726 835.309C913.395 830.627 916.097 826.269 917.238 822.28C918.368 818.327 917.991 814.657 916.356 811.238C913.031 804.285 904.396 798.17 891.963 793.407L892.5 792.006L893.036 790.605C905.643 795.435 915.22 801.909 919.062 809.943C921.01 814.017 921.456 818.44 920.122 823.105C918.798 827.734 915.748 832.517 910.85 837.427L909.788 836.368ZM892.5 792.006L891.963 793.407C889.325 792.396 886.529 791.451 883.594 790.576L884.023 789.138L884.451 787.701C887.452 788.596 890.321 789.565 893.036 790.605L892.5 792.006ZM884.023 789.138L883.594 790.576C855.528 782.202 815.125 780.254 780.236 787.297C762.8 790.817 746.833 796.565 734.498 804.802C722.177 813.029 713.544 823.69 710.575 837.069L709.11 836.744L707.646 836.419C710.826 822.093 720.053 810.84 732.832 802.307C745.596 793.783 761.969 787.924 779.643 784.356C814.976 777.224 855.879 779.176 884.451 787.701L884.023 789.138ZM909.914 836.796L909.162 835.498C915.52 831.817 919.42 827.917 921.398 824.001C923.353 820.129 923.498 816.106 922.086 811.965C919.21 803.53 909.867 794.632 896.157 786.481L896.924 785.192L897.69 783.903C911.519 792.124 921.684 801.492 924.925 810.997C926.572 815.827 926.428 820.694 924.076 825.353C921.746 829.967 917.322 834.24 910.666 838.094L909.914 836.796ZM896.924 785.192L896.157 786.481C893.281 784.772 890.224 783.101 887.011 781.481L887.687 780.142L888.362 778.803C891.632 780.451 894.75 782.154 897.69 783.903L896.924 785.192ZM887.687 780.142L887.011 781.481C860.674 768.203 824.058 758.418 791.005 757.843C757.835 757.265 728.912 765.947 716.996 788.822L715.666 788.129L714.335 787.436C727.092 762.947 757.649 754.261 791.057 754.843C824.581 755.427 861.639 765.33 888.362 778.803L887.687 780.142ZM909.925 837.243L909.535 835.794C917.387 833.679 922.401 830.532 925.215 826.798C927.996 823.108 928.775 818.65 927.761 813.545C925.704 803.182 916.314 790.515 902.204 777.922L903.202 776.803L904.201 775.684C918.407 788.362 928.445 801.586 930.704 812.961C931.848 818.726 931.006 824.098 927.611 828.603C924.249 833.065 918.53 836.478 910.315 838.691L909.925 837.243ZM903.202 776.803L902.204 777.922C899.126 775.176 895.834 772.441 892.359 769.745L893.279 768.56L894.199 767.375C897.724 770.111 901.069 772.889 904.201 775.684L903.202 776.803ZM893.279 768.56L892.359 769.745C869.331 751.873 838.421 735.757 809.159 728.66C779.812 721.543 752.647 723.602 736.452 741.266L735.346 740.252L734.241 739.239C751.584 720.323 780.216 718.554 809.866 725.745C839.6 732.956 870.888 749.284 894.199 767.375L893.279 768.56ZM909.819 837.676L909.817 836.176C918.855 836.164 924.825 834.028 928.436 830.578C932.017 827.157 933.539 822.191 933.134 815.912C932.318 803.239 923.684 785.969 910.113 768.261L911.304 767.348L912.494 766.436C926.149 784.253 935.253 802.122 936.128 815.719C936.57 822.575 934.925 828.528 930.509 832.747C926.123 836.937 919.264 839.163 909.821 839.176L909.819 837.676ZM911.304 767.348L910.113 768.261C906.956 764.141 903.54 760.009 899.906 755.918L901.028 754.921L902.149 753.925C905.829 758.068 909.291 762.256 912.494 766.436L911.304 767.348ZM901.028 754.921L899.906 755.918C881.385 735.064 857.291 715.371 833.158 703.915C808.975 692.437 785.134 689.39 766.737 701.102L765.932 699.837L765.126 698.572C784.825 686.03 809.912 689.56 834.444 701.205C859.025 712.873 883.431 732.849 902.149 753.925L901.028 754.921ZM909.605 838.068L909.992 836.619C919.746 839.219 926.503 838.259 930.944 835.072C935.392 831.878 937.914 826.164 938.54 818.345C939.796 802.673 933.325 779.652 921.699 756.092L923.045 755.428L924.39 754.764C936.092 778.481 942.852 802.097 941.531 818.584C940.869 826.845 938.151 833.591 932.693 837.509C927.228 841.432 919.414 842.235 909.219 839.518L909.605 838.068ZM923.045 755.428L921.699 756.092C918.699 750.012 915.362 743.909 911.738 737.904L913.022 737.129L914.306 736.354C917.974 742.431 921.352 748.608 924.39 754.764L923.045 755.428ZM913.022 737.129L911.738 737.904C898.63 716.187 881.809 695.816 863.635 682.373C845.445 668.918 826.136 662.561 807.872 668.314L807.422 666.883L806.971 665.452C826.535 659.29 846.852 666.228 865.419 679.961C884.001 693.707 901.066 714.417 914.306 736.354L913.022 737.129ZM909.297 838.391L910.046 837.091C919.935 842.783 927.307 843.108 932.654 840.124C938.096 837.086 941.982 830.341 944.177 820.649C948.553 801.32 945.881 771.617 937.366 742.163L938.807 741.746L940.248 741.329C948.83 771.014 951.638 801.281 947.103 821.312C944.841 831.301 940.673 839.084 934.116 842.743C927.465 846.456 918.894 845.645 908.549 839.691L909.297 838.391ZM938.807 741.746L937.366 742.163C934.915 733.687 931.985 725.248 928.61 717.102L929.996 716.528L931.381 715.954C934.802 724.208 937.768 732.753 940.248 741.329L938.807 741.746ZM929.996 716.528L928.61 717.102C920.624 697.828 910.172 680.261 897.734 667.711C885.303 655.168 870.996 647.736 855.224 648.421L855.159 646.922L855.094 645.423C871.979 644.691 887.058 652.678 899.865 665.599C912.665 678.515 923.304 696.459 931.381 715.954L929.996 716.528ZM908.824 838.58L909.882 837.517C919.148 846.741 927.053 848.379 933.594 845.443C940.372 842.401 946.314 834.222 950.93 822.287C960.118 798.528 963.511 761.288 958.874 726.554L960.361 726.355L961.848 726.157C966.532 761.247 963.144 799.021 953.728 823.369C949.041 835.487 942.725 844.634 934.823 848.18C926.684 851.833 917.488 849.321 907.765 839.643L908.824 838.58ZM960.361 726.355L958.874 726.554C957.42 715.656 955.178 705.029 952.087 695.163L953.519 694.715L954.95 694.267C958.099 704.319 960.374 715.117 961.848 726.157L960.361 726.355ZM953.519 694.715L952.087 695.163C943.435 667.544 928.282 646.298 905.537 641.233L905.863 639.768L906.189 638.304C930.536 643.726 946.194 666.316 954.95 694.267L953.519 694.715ZM908.432 838.473L909.73 837.722C913.519 844.265 917.549 848.222 921.601 850.17C925.608 852.095 929.791 852.131 934.107 850.528C942.89 847.267 952.126 837.244 960.49 822.809C977.152 794.049 989.621 749.055 988.152 711.013L989.651 710.955L991.149 710.897C992.642 749.536 980.016 795.089 963.085 824.313C954.652 838.868 944.968 849.696 935.151 853.341C930.167 855.191 925.13 855.193 920.302 852.874C915.52 850.576 911.102 846.076 907.134 839.225L908.432 838.473ZM989.651 710.955L988.152 711.013C987.686 698.962 985.823 687.657 982.283 677.811L983.694 677.304L985.106 676.796C988.776 687.002 990.675 698.625 991.149 710.897L989.651 710.955ZM983.694 677.304L982.283 677.811C977.411 664.264 969.389 653.535 957.49 647.336L958.183 646.005L958.876 644.675C971.607 651.307 980.049 662.733 985.106 676.796L983.694 677.304ZM755.611 710.052L757.906 711.984C687.897 795.148 698.56 919.319 781.724 989.328L779.792 991.623L777.86 993.918C692.161 921.775 681.173 793.819 753.316 708.12L755.611 710.052ZM779.792 991.623L781.724 989.328C864.887 1059.34 989.058 1048.67 1059.07 965.511L1061.36 967.443L1063.66 969.375C991.514 1055.07 863.558 1066.06 777.86 993.918L779.792 991.623ZM1061.36 967.443L1059.07 965.511C1129.08 882.348 1118.41 758.177 1035.25 688.167L1037.18 685.872L1039.11 683.577C1124.81 755.721 1135.8 883.677 1063.66 969.375L1061.36 967.443ZM1037.18 685.872L1035.25 688.167C952.087 618.158 827.916 628.821 757.906 711.984L755.611 710.052L753.316 708.12C825.46 622.422 953.416 611.434 1039.11 683.577L1037.18 685.872ZM904.887 834.858L907.182 836.79C905.677 838.577 905.907 841.246 907.694 842.751L905.762 845.046L903.83 847.341C899.507 843.702 898.953 837.248 902.592 832.926L904.887 834.858ZM905.762 845.046L907.694 842.751C909.482 844.256 912.151 844.027 913.655 842.239L915.95 844.171L918.245 846.103C914.607 850.426 908.153 850.98 903.83 847.341L905.762 845.046ZM915.95 844.171L913.655 842.239C915.16 840.452 914.931 837.783 913.143 836.278L915.075 833.983L917.008 831.688C921.33 835.327 921.884 841.781 918.245 846.103L915.95 844.171ZM915.075 833.983L913.143 836.278C911.356 834.773 908.687 835.002 907.182 836.79L904.887 834.858L902.592 832.926C906.231 828.603 912.685 828.049 917.008 831.688L915.075 833.983Z" fill="url(#paint2_radial_48_1351)" mask="url(#path-5-inside-1_48_1351)"/>
<circle cx="5.91612" cy="5.91612" r="5.91612" transform="matrix(-0.765015 -0.644013 -0.644013 0.765015 918.733 838.78)" fill="#7B5BFF"/>
<path d="M136.781 386H287.367C309.34 386 327.016 386.977 340.395 388.93C353.871 390.883 364.076 394.252 371.01 399.037C377.943 403.822 382.631 410.365 385.072 418.666C387.514 426.967 388.734 437.465 388.734 450.16V456.02C388.734 467.738 387.318 477.846 384.486 486.342C381.752 494.74 376.43 501.576 368.52 506.85C360.609 512.025 348.891 515.688 333.363 517.836L382.289 611H354.164L306.264 519.887C304.311 519.984 302.26 520.033 300.111 520.033C298.061 520.033 295.912 520.033 293.666 520.033H164.906V611H136.781V386ZM164.906 495.717H289.271C305.971 495.717 319.105 495.18 328.676 494.105C338.344 492.934 345.424 490.932 349.916 488.1C354.506 485.268 357.436 481.264 358.705 476.088C359.975 470.912 360.609 464.223 360.609 456.02V450.16C360.609 440.883 359.73 433.559 357.973 428.188C356.215 422.816 352.699 418.861 347.426 416.322C342.152 413.783 334.291 412.172 323.842 411.488C313.393 410.707 299.428 410.316 281.947 410.316H164.906V495.717Z" fill="white"/>
<g filter="url(#filter1_d_48_1351)">
<path d="M418.906 426L484.531 313.5H503.281L568.906 426H552.5L538.438 400.219H449.375L435.312 426H418.906ZM456.406 388.5H531.406L493.906 322.875L456.406 388.5ZM587.656 426V313.5H601.719V426H587.656Z" fill="#00F0FF"/>
</g>
</g>
<rect x="-5" y="5" width="1070" height="1070" rx="535" transform="matrix(-1 0 0 1 1070 0)" stroke="#8C52FF" stroke-width="10"/>
<defs>
<filter id="filter0_dd_48_1351" x="333.104" y="263.742" width="1146.89" height="1145.94" filterUnits="userSpaceOnUse" color-interpolation-filters="sRGB">
<feFlood flood-opacity="0" result="BackgroundImageFix"/>
<feColorMatrix in="SourceAlpha" type="matrix" values="0 0 0 0 0 0 0 0 0 0 0 0 0 0 0 0 0 0 127 0" result="hardAlpha"/>
<feOffset dx="1" dy="1"/>
<feGaussianBlur stdDeviation="8.4"/>
<feComposite in2="hardAlpha" operator="out"/>
<feColorMatrix type="matrix" values="0 0 0 0 0.482353 0 0 0 0 0.356863 0 0 0 0 1 0 0 0 1 0"/>
<feBlend mode="normal" in2="BackgroundImageFix" result="effect1_dropShadow_48_1351"/>
<feColorMatrix in="SourceAlpha" type="matrix" values="0 0 0 0 0 0 0 0 0 0 0 0 0 0 0 0 0 0 127 0" result="hardAlpha"/>
<feOffset dx="-1" dy="-1"/>
<feGaussianBlur stdDeviation="2"/>
<feComposite in2="hardAlpha" operator="out"/>
<feColorMatrix type="matrix" values="0 0 0 0 0.482353 0 0 0 0 0.356863 0 0 0 0 1 0 0 0 0.85 0"/>
<feBlend mode="normal" in2="effect1_dropShadow_48_1351" result="effect2_dropShadow_48_1351"/>
<feBlend mode="normal" in="SourceGraphic" in2="effect2_dropShadow_48_1351" result="shape"/>
</filter>
<filter id="filter1_d_48_1351" x="357.606" y="256.2" width="305.412" height="235.1" filterUnits="userSpaceOnUse" color-interpolation-filters="sRGB">
<feFlood flood-opacity="0" result="BackgroundImageFix"/>
<feColorMatrix in="SourceAlpha" type="matrix" values="0 0 0 0 0 0 0 0 0 0 0 0 0 0 0 0 0 0 127 0" result="hardAlpha"/>
<feOffset dy="4"/>
<feGaussianBlur stdDeviation="30.65"/>
<feComposite in2="hardAlpha" operator="out"/>
<feColorMatrix type="matrix" values="0 0 0 0 0 0 0 0 0 1 0 0 0 0 0.995614 0 0 0 1 0"/>
<feBlend mode="normal" in2="BackgroundImageFix" result="effect1_dropShadow_48_1351"/>
<feBlend mode="normal" in="SourceGraphic" in2="effect1_dropShadow_48_1351" result="shape"/>
</filter>
<radialGradient id="paint0_radial_48_1351" cx="0" cy="0" r="1" gradientUnits="userSpaceOnUse" gradientTransform="translate(905.415 836.161) rotate(40.0917) scale(609.36 523.772)">
<stop offset="0.288521" stop-color="#7B5BFF" stop-opacity="0.28"/>
<stop offset="0.682772" stop-color="#7B5BFF"/>
</radialGradient>
<radialGradient id="paint1_radial_48_1351" cx="0" cy="0" r="1" gradientUnits="userSpaceOnUse" gradientTransform="translate(905.151 836.144) rotate(62.9323) scale(609.36 523.772)">
<stop offset="0.288521" stop-color="#7B5BFF" stop-opacity="0.28"/>
<stop offset="0.682772" stop-color="#7B5BFF"/>
</radialGradient>
<radialGradient id="paint2_radial_48_1351" cx="0" cy="0" r="1" gradientUnits="userSpaceOnUse" gradientTransform="translate(908.487 838.748) rotate(130.092) scale(199.833)">
<stop stop-color="#7B5BFF"/>
<stop offset="1" stop-color="#7B5BFF" stop-opacity="0.68"/>
</radialGradient>
<clipPath id="clip0_48_1351">
<rect width="1080" height="1080" rx="540" transform="matrix(-1 0 0 1 1080 0)" fill="white"/>
</clipPath>
</defs>
</svg>
